<?xml version="1.0" encoding="UTF-8" standalone="no"?>
<!DOCTYPE svg PUBLIC "-//W3C//DTD SVG 1.1//EN"
 "http://www.w3.org/Graphics/SVG/1.1/DTD/svg11.dtd">
<!-- Generated by graphviz version 2.43.0 (0)
 -->
<!-- Title: %3 Pages: 1 -->
<svg width="2042pt" height="1088pt"
 viewBox="0.00 0.00 2042.45 1088.00" xmlns="http://www.w3.org/2000/svg" xmlns:xlink="http://www.w3.org/1999/xlink">
<g id="graph0" class="graph" transform="scale(1 1) rotate(0) translate(4 1084)">
<title>%3</title>
<polygon fill="white" stroke="transparent" points="-4,4 -4,-1084 2038.45,-1084 2038.45,4 -4,4"/>
<!-- 0 -->
<g id="node1" class="node">
<title>0</title>
<ellipse fill="none" stroke="black" cx="1191.45" cy="-1062" rx="27" ry="18"/>
<text text-anchor="middle" x="1191.45" y="-1058.3" font-family="Times,serif" font-size="14.00">0</text>
</g>
<!-- 1 -->
<g id="node2" class="node">
<title>1</title>
<ellipse fill="none" stroke="black" cx="1114.45" cy="-975" rx="27" ry="18"/>
<text text-anchor="middle" x="1114.45" y="-971.3" font-family="Times,serif" font-size="14.00">1</text>
</g>
<!-- 0&#45;&gt;1 -->
<g id="edge1" class="edge">
<title>0&#45;&gt;1</title>
<path fill="none" stroke="black" d="M1166.39,-1055.19C1150.61,-1050.18 1131.25,-1041.25 1120.45,-1026 1115.81,-1019.45 1113.73,-1011.17 1112.96,-1003.24"/>
<polygon fill="black" stroke="black" points="1116.46,-1003.07 1112.61,-993.2 1109.46,-1003.31 1116.46,-1003.07"/>
<text text-anchor="middle" x="1179.95" y="-1014.8" font-family="Times,serif" font-size="14.00">Axiom EVM.step</text>
</g>
<!-- 2 -->
<g id="node3" class="node">
<title>2</title>
<ellipse fill="none" stroke="black" cx="1267.45" cy="-975" rx="27" ry="18"/>
<text text-anchor="middle" x="1267.45" y="-971.3" font-family="Times,serif" font-size="14.00">2</text>
</g>
<!-- 0&#45;&gt;2 -->
<g id="edge2" class="edge">
<title>0&#45;&gt;2</title>
<path fill="none" stroke="black" d="M1212.39,-1050.38C1222.75,-1044.32 1234.83,-1035.96 1243.45,-1026 1249.36,-1019.16 1254.16,-1010.62 1257.87,-1002.54"/>
<polygon fill="black" stroke="black" points="1261.21,-1003.64 1261.86,-993.06 1254.76,-1000.92 1261.21,-1003.64"/>
<text text-anchor="middle" x="1291.95" y="-1014.8" font-family="Times,serif" font-size="14.00">Remaining</text>
</g>
<!-- 975 -->
<g id="node4" class="node">
<title>975</title>
<ellipse fill="none" stroke="black" cx="1101.45" cy="-888" rx="28.7" ry="18"/>
<text text-anchor="middle" x="1101.45" y="-884.3" font-family="Times,serif" font-size="14.00">975</text>
</g>
<!-- 1&#45;&gt;975 -->
<g id="edge3" class="edge">
<title>1&#45;&gt;975</title>
<path fill="none" stroke="black" stroke-dasharray="1,5" d="M1111.82,-956.8C1110.04,-945.16 1107.65,-929.55 1105.61,-916.24"/>
<polygon fill="black" stroke="black" points="1109.05,-915.53 1104.07,-906.18 1102.13,-916.59 1109.05,-915.53"/>
<text text-anchor="middle" x="1181.95" y="-927.8" font-family="Times,serif" font-size="14.00">(972 nodes omitted)</text>
</g>
<!-- 7906 -->
<g id="node63" class="node">
<title>7906</title>
<ellipse fill="none" stroke="#00c800" cx="1269.45" cy="-888" rx="34.39" ry="18"/>
<text text-anchor="middle" x="1269.45" y="-884.3" font-family="Times,serif" font-size="14.00">7906</text>
</g>
<!-- 2&#45;&gt;7906 -->
<g id="edge4" class="edge">
<title>2&#45;&gt;7906</title>
<path fill="none" stroke="black" d="M1267.85,-956.8C1268.13,-945.16 1268.49,-929.55 1268.81,-916.24"/>
<polygon fill="black" stroke="black" points="1272.31,-916.26 1269.04,-906.18 1265.31,-916.09 1272.31,-916.26"/>
<text text-anchor="middle" x="1330.45" y="-927.8" font-family="Times,serif" font-size="14.00">CheckImplication</text>
</g>
<!-- 976 -->
<g id="node5" class="node">
<title>976</title>
<ellipse fill="none" stroke="black" cx="1037.45" cy="-801" rx="28.7" ry="18"/>
<text text-anchor="middle" x="1037.45" y="-797.3" font-family="Times,serif" font-size="14.00">976</text>
</g>
<!-- 975&#45;&gt;976 -->
<g id="edge5" class="edge">
<title>975&#45;&gt;976</title>
<path fill="none" stroke="black" d="M1083.13,-874.17C1075.41,-868.1 1066.77,-860.36 1060.45,-852 1055.04,-844.85 1050.5,-836.22 1046.93,-828.16"/>
<polygon fill="black" stroke="black" points="1050.1,-826.66 1043.05,-818.75 1043.62,-829.33 1050.1,-826.66"/>
<text text-anchor="middle" x="1098.45" y="-840.8" font-family="Times,serif" font-size="14.00">Axiom 237</text>
</g>
<!-- 977 -->
<g id="node6" class="node">
<title>977</title>
<ellipse fill="none" stroke="black" cx="1186.45" cy="-801" rx="28.7" ry="18"/>
<text text-anchor="middle" x="1186.45" y="-797.3" font-family="Times,serif" font-size="14.00">977</text>
</g>
<!-- 975&#45;&gt;977 -->
<g id="edge6" class="edge">
<title>975&#45;&gt;977</title>
<path fill="none" stroke="black" d="M1116.25,-872.19C1129.54,-858.91 1149.22,-839.23 1164.36,-824.08"/>
<polygon fill="black" stroke="black" points="1167.21,-826.18 1171.81,-816.64 1162.26,-821.23 1167.21,-826.18"/>
<text text-anchor="middle" x="1187.45" y="-840.8" font-family="Times,serif" font-size="14.00">Axiom 238</text>
</g>
<!-- 1063 -->
<g id="node7" class="node">
<title>1063</title>
<ellipse fill="none" stroke="black" cx="988.45" cy="-714" rx="34.39" ry="18"/>
<text text-anchor="middle" x="988.45" y="-710.3" font-family="Times,serif" font-size="14.00">1063</text>
</g>
<!-- 976&#45;&gt;1063 -->
<g id="edge7" class="edge">
<title>976&#45;&gt;1063</title>
<path fill="none" stroke="black" stroke-dasharray="1,5" d="M1028,-783.61C1020.88,-771.26 1011,-754.12 1002.89,-740.05"/>
<polygon fill="black" stroke="black" points="1005.89,-738.25 997.87,-731.34 999.83,-741.75 1005.89,-738.25"/>
<text text-anchor="middle" x="1084.45" y="-753.8" font-family="Times,serif" font-size="14.00">(85 nodes omitted)</text>
</g>
<!-- 5543 -->
<g id="node40" class="node">
<title>5543</title>
<ellipse fill="none" stroke="black" cx="1232.45" cy="-714" rx="34.39" ry="18"/>
<text text-anchor="middle" x="1232.45" y="-710.3" font-family="Times,serif" font-size="14.00">5543</text>
</g>
<!-- 977&#45;&gt;5543 -->
<g id="edge8" class="edge">
<title>977&#45;&gt;5543</title>
<path fill="none" stroke="black" stroke-dasharray="1,5" d="M1195.32,-783.61C1201.89,-771.46 1210.98,-754.66 1218.52,-740.73"/>
<polygon fill="black" stroke="black" points="1221.77,-742.09 1223.45,-731.63 1215.61,-738.76 1221.77,-742.09"/>
<text text-anchor="middle" x="1280.45" y="-753.8" font-family="Times,serif" font-size="14.00">(92 nodes omitted)</text>
</g>
<!-- 1064 -->
<g id="node8" class="node">
<title>1064</title>
<ellipse fill="none" stroke="black" cx="838.45" cy="-627" rx="34.39" ry="18"/>
<text text-anchor="middle" x="838.45" y="-623.3" font-family="Times,serif" font-size="14.00">1064</text>
</g>
<!-- 1063&#45;&gt;1064 -->
<g id="edge9" class="edge">
<title>1063&#45;&gt;1064</title>
<path fill="none" stroke="black" d="M961.1,-702.68C945.32,-696.33 925.32,-687.58 908.45,-678 893.36,-669.43 877.55,-658.34 864.78,-648.79"/>
<polygon fill="black" stroke="black" points="866.54,-645.73 856.47,-642.46 862.31,-651.3 866.54,-645.73"/>
<text text-anchor="middle" x="946.45" y="-666.8" font-family="Times,serif" font-size="14.00">Axiom 237</text>
</g>
<!-- 1065 -->
<g id="node9" class="node">
<title>1065</title>
<ellipse fill="none" stroke="black" cx="988.45" cy="-627" rx="34.39" ry="18"/>
<text text-anchor="middle" x="988.45" y="-623.3" font-family="Times,serif" font-size="14.00">1065</text>
</g>
<!-- 1063&#45;&gt;1065 -->
<g id="edge10" class="edge">
<title>1063&#45;&gt;1065</title>
<path fill="none" stroke="black" d="M988.45,-695.8C988.45,-684.16 988.45,-668.55 988.45,-655.24"/>
<polygon fill="black" stroke="black" points="991.95,-655.18 988.45,-645.18 984.95,-655.18 991.95,-655.18"/>
<text text-anchor="middle" x="1026.45" y="-666.8" font-family="Times,serif" font-size="14.00">Axiom 238</text>
</g>
<!-- 1457 -->
<g id="node10" class="node">
<title>1457</title>
<ellipse fill="none" stroke="black" cx="621.45" cy="-540" rx="34.39" ry="18"/>
<text text-anchor="middle" x="621.45" y="-536.3" font-family="Times,serif" font-size="14.00">1457</text>
</g>
<!-- 1064&#45;&gt;1457 -->
<g id="edge11" class="edge">
<title>1064&#45;&gt;1457</title>
<path fill="none" stroke="black" stroke-dasharray="1,5" d="M811.4,-615.41C772.53,-600.18 700.79,-572.08 657.47,-555.11"/>
<polygon fill="black" stroke="black" points="658.74,-551.85 648.15,-551.46 656.19,-558.37 658.74,-551.85"/>
<text text-anchor="middle" x="815.95" y="-579.8" font-family="Times,serif" font-size="14.00">(391 nodes omitted)</text>
</g>
<!-- 3984 -->
<g id="node31" class="node">
<title>3984</title>
<ellipse fill="none" stroke="black" cx="988.45" cy="-540" rx="34.39" ry="18"/>
<text text-anchor="middle" x="988.45" y="-536.3" font-family="Times,serif" font-size="14.00">3984</text>
</g>
<!-- 1065&#45;&gt;3984 -->
<g id="edge12" class="edge">
<title>1065&#45;&gt;3984</title>
<path fill="none" stroke="black" stroke-dasharray="1,5" d="M988.45,-608.8C988.45,-597.16 988.45,-581.55 988.45,-568.24"/>
<polygon fill="black" stroke="black" points="991.95,-568.18 988.45,-558.18 984.95,-568.18 991.95,-568.18"/>
<text text-anchor="middle" x="1060.95" y="-579.8" font-family="Times,serif" font-size="14.00">(314 nodes omitted)</text>
</g>
<!-- 1458 -->
<g id="node11" class="node">
<title>1458</title>
<ellipse fill="none" stroke="black" cx="477.45" cy="-453" rx="34.39" ry="18"/>
<text text-anchor="middle" x="477.45" y="-449.3" font-family="Times,serif" font-size="14.00">1458</text>
</g>
<!-- 1457&#45;&gt;1458 -->
<g id="edge13" class="edge">
<title>1457&#45;&gt;1458</title>
<path fill="none" stroke="black" d="M593.95,-528.96C578.11,-522.69 558.11,-513.94 541.45,-504 527.61,-495.75 513.37,-484.9 501.85,-475.42"/>
<polygon fill="black" stroke="black" points="503.9,-472.56 493.99,-468.81 499.39,-477.92 503.9,-472.56"/>
<text text-anchor="middle" x="579.45" y="-492.8" font-family="Times,serif" font-size="14.00">Axiom 237</text>
</g>
<!-- 1459 -->
<g id="node12" class="node">
<title>1459</title>
<ellipse fill="none" stroke="black" cx="621.45" cy="-453" rx="34.39" ry="18"/>
<text text-anchor="middle" x="621.45" y="-449.3" font-family="Times,serif" font-size="14.00">1459</text>
</g>
<!-- 1457&#45;&gt;1459 -->
<g id="edge14" class="edge">
<title>1457&#45;&gt;1459</title>
<path fill="none" stroke="black" d="M621.45,-521.8C621.45,-510.16 621.45,-494.55 621.45,-481.24"/>
<polygon fill="black" stroke="black" points="624.95,-481.18 621.45,-471.18 617.95,-481.18 624.95,-481.18"/>
<text text-anchor="middle" x="659.45" y="-492.8" font-family="Times,serif" font-size="14.00">Axiom 238</text>
</g>
<!-- 1545 -->
<g id="node13" class="node">
<title>1545</title>
<ellipse fill="none" stroke="black" cx="355.45" cy="-366" rx="34.39" ry="18"/>
<text text-anchor="middle" x="355.45" y="-362.3" font-family="Times,serif" font-size="14.00">1545</text>
</g>
<!-- 1458&#45;&gt;1545 -->
<g id="edge15" class="edge">
<title>1458&#45;&gt;1545</title>
<path fill="none" stroke="black" stroke-dasharray="1,5" d="M457.57,-438.15C437.46,-424.14 406.17,-402.34 383.53,-386.56"/>
<polygon fill="black" stroke="black" points="385.52,-383.68 375.31,-380.84 381.52,-389.43 385.52,-383.68"/>
<text text-anchor="middle" x="492.45" y="-405.8" font-family="Times,serif" font-size="14.00">(85 nodes omitted)</text>
</g>
<!-- 2765 -->
<g id="node26" class="node">
<title>2765</title>
<ellipse fill="none" stroke="black" cx="621.45" cy="-366" rx="34.39" ry="18"/>
<text text-anchor="middle" x="621.45" y="-362.3" font-family="Times,serif" font-size="14.00">2765</text>
</g>
<!-- 1459&#45;&gt;2765 -->
<g id="edge16" class="edge">
<title>1459&#45;&gt;2765</title>
<path fill="none" stroke="black" stroke-dasharray="1,5" d="M621.45,-434.8C621.45,-423.16 621.45,-407.55 621.45,-394.24"/>
<polygon fill="black" stroke="black" points="624.95,-394.18 621.45,-384.18 617.95,-394.18 624.95,-394.18"/>
<text text-anchor="middle" x="689.45" y="-405.8" font-family="Times,serif" font-size="14.00">(92 nodes omitted)</text>
</g>
<!-- 1546 -->
<g id="node14" class="node">
<title>1546</title>
<ellipse fill="none" stroke="black" cx="205.45" cy="-279" rx="34.39" ry="18"/>
<text text-anchor="middle" x="205.45" y="-275.3" font-family="Times,serif" font-size="14.00">1546</text>
</g>
<!-- 1545&#45;&gt;1546 -->
<g id="edge17" class="edge">
<title>1545&#45;&gt;1546</title>
<path fill="none" stroke="black" d="M328.1,-354.68C312.32,-348.33 292.32,-339.58 275.45,-330 260.36,-321.43 244.55,-310.34 231.78,-300.79"/>
<polygon fill="black" stroke="black" points="233.54,-297.73 223.47,-294.46 229.31,-303.3 233.54,-297.73"/>
<text text-anchor="middle" x="313.45" y="-318.8" font-family="Times,serif" font-size="14.00">Axiom 237</text>
</g>
<!-- 1547 -->
<g id="node15" class="node">
<title>1547</title>
<ellipse fill="none" stroke="black" cx="355.45" cy="-279" rx="34.39" ry="18"/>
<text text-anchor="middle" x="355.45" y="-275.3" font-family="Times,serif" font-size="14.00">1547</text>
</g>
<!-- 1545&#45;&gt;1547 -->
<g id="edge18" class="edge">
<title>1545&#45;&gt;1547</title>
<path fill="none" stroke="black" d="M355.45,-347.8C355.45,-336.16 355.45,-320.55 355.45,-307.24"/>
<polygon fill="black" stroke="black" points="358.95,-307.18 355.45,-297.18 351.95,-307.18 358.95,-307.18"/>
<text text-anchor="middle" x="393.45" y="-318.8" font-family="Times,serif" font-size="14.00">Axiom 238</text>
</g>
<!-- 1939 -->
<g id="node16" class="node">
<title>1939</title>
<ellipse fill="none" stroke="black" cx="187.45" cy="-192" rx="34.39" ry="18"/>
<text text-anchor="middle" x="187.45" y="-188.3" font-family="Times,serif" font-size="14.00">1939</text>
</g>
<!-- 1546&#45;&gt;1939 -->
<g id="edge19" class="edge">
<title>1546&#45;&gt;1939</title>
<path fill="none" stroke="black" stroke-dasharray="1,5" d="M201.8,-260.8C199.34,-249.16 196.03,-233.55 193.21,-220.24"/>
<polygon fill="black" stroke="black" points="196.58,-219.23 191.08,-210.18 189.73,-220.68 196.58,-219.23"/>
<text text-anchor="middle" x="270.95" y="-231.8" font-family="Times,serif" font-size="14.00">(391 nodes omitted)</text>
</g>
<!-- 2386 -->
<g id="node21" class="node">
<title>2386</title>
<ellipse fill="none" stroke="black" cx="355.45" cy="-192" rx="34.39" ry="18"/>
<text text-anchor="middle" x="355.45" y="-188.3" font-family="Times,serif" font-size="14.00">2386</text>
</g>
<!-- 1547&#45;&gt;2386 -->
<g id="edge20" class="edge">
<title>1547&#45;&gt;2386</title>
<path fill="none" stroke="black" stroke-dasharray="1,5" d="M355.45,-260.8C355.45,-249.16 355.45,-233.55 355.45,-220.24"/>
<polygon fill="black" stroke="black" points="358.95,-220.18 355.45,-210.18 351.95,-220.18 358.95,-220.18"/>
<text text-anchor="middle" x="427.95" y="-231.8" font-family="Times,serif" font-size="14.00">(314 nodes omitted)</text>
</g>
<!-- 1940 -->
<g id="node17" class="node">
<title>1940</title>
<ellipse fill="none" stroke="black" cx="64.45" cy="-105" rx="34.39" ry="18"/>
<text text-anchor="middle" x="64.45" y="-101.3" font-family="Times,serif" font-size="14.00">1940</text>
</g>
<!-- 1939&#45;&gt;1940 -->
<g id="edge21" class="edge">
<title>1939&#45;&gt;1940</title>
<path fill="none" stroke="black" d="M158.81,-181.74C143.06,-175.84 123.69,-167.18 108.45,-156 98.6,-148.77 89.38,-138.99 81.96,-130"/>
<polygon fill="black" stroke="black" points="84.62,-127.73 75.67,-122.06 79.13,-132.07 84.62,-127.73"/>
<text text-anchor="middle" x="146.45" y="-144.8" font-family="Times,serif" font-size="14.00">Axiom 237</text>
</g>
<!-- 1941 -->
<g id="node18" class="node">
<title>1941</title>
<ellipse fill="none" stroke="black" cx="189.45" cy="-105" rx="34.39" ry="18"/>
<text text-anchor="middle" x="189.45" y="-101.3" font-family="Times,serif" font-size="14.00">1941</text>
</g>
<!-- 1939&#45;&gt;1941 -->
<g id="edge22" class="edge">
<title>1939&#45;&gt;1941</title>
<path fill="none" stroke="black" d="M187.85,-173.8C188.13,-162.16 188.49,-146.55 188.81,-133.24"/>
<polygon fill="black" stroke="black" points="192.31,-133.26 189.04,-123.18 185.31,-133.09 192.31,-133.26"/>
<text text-anchor="middle" x="227.45" y="-144.8" font-family="Times,serif" font-size="14.00">Axiom 238</text>
</g>
<!-- 2006 -->
<g id="node19" class="node">
<title>2006</title>
<ellipse fill="none" stroke="black" cx="34.45" cy="-18" rx="34.39" ry="18"/>
<text text-anchor="middle" x="34.45" y="-14.3" font-family="Times,serif" font-size="14.00">2006</text>
</g>
<!-- 1940&#45;&gt;2006 -->
<g id="edge23" class="edge">
<title>1940&#45;&gt;2006</title>
<path fill="none" stroke="black" stroke-dasharray="1,5" d="M58.14,-87.3C55.98,-81.52 53.58,-74.99 51.45,-69 48.79,-61.52 45.98,-53.37 43.43,-45.87"/>
<polygon fill="black" stroke="black" points="46.67,-44.52 40.15,-36.17 40.04,-46.76 46.67,-44.52"/>
<text text-anchor="middle" x="119.45" y="-57.8" font-family="Times,serif" font-size="14.00">(64 nodes omitted)</text>
</g>
<!-- 2071 -->
<g id="node20" class="node">
<title>2071</title>
<ellipse fill="none" stroke="black" cx="193.45" cy="-18" rx="34.39" ry="18"/>
<text text-anchor="middle" x="193.45" y="-14.3" font-family="Times,serif" font-size="14.00">2071</text>
</g>
<!-- 1941&#45;&gt;2071 -->
<g id="edge24" class="edge">
<title>1941&#45;&gt;2071</title>
<path fill="none" stroke="black" stroke-dasharray="1,5" d="M190.26,-86.8C190.8,-75.16 191.54,-59.55 192.17,-46.24"/>
<polygon fill="black" stroke="black" points="195.66,-46.33 192.64,-36.18 188.67,-46 195.66,-46.33"/>
<text text-anchor="middle" x="260.45" y="-57.8" font-family="Times,serif" font-size="14.00">(64 nodes omitted)</text>
</g>
<!-- 2387 -->
<g id="node22" class="node">
<title>2387</title>
<ellipse fill="none" stroke="black" cx="353.45" cy="-105" rx="34.39" ry="18"/>
<text text-anchor="middle" x="353.45" y="-101.3" font-family="Times,serif" font-size="14.00">2387</text>
</g>
<!-- 2386&#45;&gt;2387 -->
<g id="edge25" class="edge">
<title>2386&#45;&gt;2387</title>
<path fill="none" stroke="black" d="M355.04,-173.8C354.77,-162.16 354.4,-146.55 354.09,-133.24"/>
<polygon fill="black" stroke="black" points="357.59,-133.09 353.85,-123.18 350.59,-133.26 357.59,-133.09"/>
<text text-anchor="middle" x="393.45" y="-144.8" font-family="Times,serif" font-size="14.00">Axiom 237</text>
</g>
<!-- 2388 -->
<g id="node23" class="node">
<title>2388</title>
<ellipse fill="none" stroke="black" cx="504.45" cy="-105" rx="34.39" ry="18"/>
<text text-anchor="middle" x="504.45" y="-101.3" font-family="Times,serif" font-size="14.00">2388</text>
</g>
<!-- 2386&#45;&gt;2388 -->
<g id="edge26" class="edge">
<title>2386&#45;&gt;2388</title>
<path fill="none" stroke="black" d="M382.82,-180.73C398.6,-174.39 418.6,-165.64 435.45,-156 450.37,-147.46 465.96,-136.38 478.53,-126.81"/>
<polygon fill="black" stroke="black" points="480.95,-129.37 486.72,-120.48 476.66,-123.83 480.95,-129.37"/>
<text text-anchor="middle" x="495.45" y="-144.8" font-family="Times,serif" font-size="14.00">Axiom 238</text>
</g>
<!-- 2530 -->
<g id="node24" class="node">
<title>2530</title>
<ellipse fill="none" stroke="black" cx="353.45" cy="-18" rx="34.39" ry="18"/>
<text text-anchor="middle" x="353.45" y="-14.3" font-family="Times,serif" font-size="14.00">2530</text>
</g>
<!-- 2387&#45;&gt;2530 -->
<g id="edge27" class="edge">
<title>2387&#45;&gt;2530</title>
<path fill="none" stroke="black" stroke-dasharray="1,5" d="M353.45,-86.8C353.45,-75.16 353.45,-59.55 353.45,-46.24"/>
<polygon fill="black" stroke="black" points="356.95,-46.18 353.45,-36.18 349.95,-46.18 356.95,-46.18"/>
<text text-anchor="middle" x="425.95" y="-57.8" font-family="Times,serif" font-size="14.00">(141 nodes omitted)</text>
</g>
<!-- 2672 -->
<g id="node25" class="node">
<title>2672</title>
<ellipse fill="none" stroke="black" cx="521.45" cy="-18" rx="34.39" ry="18"/>
<text text-anchor="middle" x="521.45" y="-14.3" font-family="Times,serif" font-size="14.00">2672</text>
</g>
<!-- 2388&#45;&gt;2672 -->
<g id="edge28" class="edge">
<title>2388&#45;&gt;2672</title>
<path fill="none" stroke="black" stroke-dasharray="1,5" d="M507.89,-86.8C510.21,-75.16 513.34,-59.55 516,-46.24"/>
<polygon fill="black" stroke="black" points="519.48,-46.67 518.01,-36.18 512.62,-45.29 519.48,-46.67"/>
<text text-anchor="middle" x="586.95" y="-57.8" font-family="Times,serif" font-size="14.00">(141 nodes omitted)</text>
</g>
<!-- 2766 -->
<g id="node27" class="node">
<title>2766</title>
<ellipse fill="none" stroke="black" cx="527.45" cy="-279" rx="34.39" ry="18"/>
<text text-anchor="middle" x="527.45" y="-275.3" font-family="Times,serif" font-size="14.00">2766</text>
</g>
<!-- 2765&#45;&gt;2766 -->
<g id="edge29" class="edge">
<title>2765&#45;&gt;2766</title>
<path fill="none" stroke="black" d="M598.97,-352.25C589.11,-346.14 577.7,-338.34 568.45,-330 560.07,-322.44 551.95,-313.12 545.18,-304.57"/>
<polygon fill="black" stroke="black" points="547.76,-302.18 538.9,-296.38 542.2,-306.44 547.76,-302.18"/>
<text text-anchor="middle" x="606.45" y="-318.8" font-family="Times,serif" font-size="14.00">Axiom 237</text>
</g>
<!-- 2767 -->
<g id="node28" class="node">
<title>2767</title>
<ellipse fill="none" stroke="black" cx="682.45" cy="-279" rx="34.39" ry="18"/>
<text text-anchor="middle" x="682.45" y="-275.3" font-family="Times,serif" font-size="14.00">2767</text>
</g>
<!-- 2765&#45;&gt;2767 -->
<g id="edge30" class="edge">
<title>2765&#45;&gt;2767</title>
<path fill="none" stroke="black" d="M632.92,-349.01C641.89,-336.51 654.53,-318.9 664.79,-304.61"/>
<polygon fill="black" stroke="black" points="667.83,-306.37 670.82,-296.21 662.14,-302.29 667.83,-306.37"/>
<text text-anchor="middle" x="694.45" y="-318.8" font-family="Times,serif" font-size="14.00">Axiom 238</text>
</g>
<!-- 3218 -->
<g id="node29" class="node">
<title>3218</title>
<ellipse fill="none" stroke="black" cx="523.45" cy="-192" rx="34.39" ry="18"/>
<text text-anchor="middle" x="523.45" y="-188.3" font-family="Times,serif" font-size="14.00">3218</text>
</g>
<!-- 2766&#45;&gt;3218 -->
<g id="edge31" class="edge">
<title>2766&#45;&gt;3218</title>
<path fill="none" stroke="black" stroke-dasharray="1,5" d="M525.76,-260.93C525.25,-255.23 524.76,-248.85 524.45,-243 524.06,-235.66 523.82,-227.71 523.67,-220.35"/>
<polygon fill="black" stroke="black" points="527.17,-220.08 523.51,-210.13 520.17,-220.19 527.17,-220.08"/>
<text text-anchor="middle" x="596.95" y="-231.8" font-family="Times,serif" font-size="14.00">(450 nodes omitted)</text>
</g>
<!-- 3669 -->
<g id="node30" class="node">
<title>3669</title>
<ellipse fill="none" stroke="black" cx="691.45" cy="-192" rx="34.39" ry="18"/>
<text text-anchor="middle" x="691.45" y="-188.3" font-family="Times,serif" font-size="14.00">3669</text>
</g>
<!-- 2767&#45;&gt;3669 -->
<g id="edge32" class="edge">
<title>2767&#45;&gt;3669</title>
<path fill="none" stroke="black" stroke-dasharray="1,5" d="M684.27,-260.8C685.5,-249.16 687.15,-233.55 688.56,-220.24"/>
<polygon fill="black" stroke="black" points="692.06,-220.49 689.63,-210.18 685.09,-219.75 692.06,-220.49"/>
<text text-anchor="middle" x="760.95" y="-231.8" font-family="Times,serif" font-size="14.00">(450 nodes omitted)</text>
</g>
<!-- 3985 -->
<g id="node32" class="node">
<title>3985</title>
<ellipse fill="none" stroke="black" cx="925.45" cy="-453" rx="34.39" ry="18"/>
<text text-anchor="middle" x="925.45" y="-449.3" font-family="Times,serif" font-size="14.00">3985</text>
</g>
<!-- 3984&#45;&gt;3985 -->
<g id="edge33" class="edge">
<title>3984&#45;&gt;3985</title>
<path fill="none" stroke="black" d="M965.98,-525.92C957.62,-520.12 948.66,-512.63 942.45,-504 937.6,-497.27 934.06,-489.06 931.51,-481.26"/>
<polygon fill="black" stroke="black" points="934.8,-480.04 928.69,-471.38 928.07,-481.96 934.8,-480.04"/>
<text text-anchor="middle" x="980.45" y="-492.8" font-family="Times,serif" font-size="14.00">Axiom 237</text>
</g>
<!-- 3986 -->
<g id="node33" class="node">
<title>3986</title>
<ellipse fill="none" stroke="black" cx="1050.45" cy="-453" rx="34.39" ry="18"/>
<text text-anchor="middle" x="1050.45" y="-449.3" font-family="Times,serif" font-size="14.00">3986</text>
</g>
<!-- 3984&#45;&gt;3986 -->
<g id="edge34" class="edge">
<title>3984&#45;&gt;3986</title>
<path fill="none" stroke="black" d="M1004.95,-523.76C1010.84,-517.89 1017.28,-510.93 1022.45,-504 1028,-496.55 1033.23,-487.87 1037.64,-479.86"/>
<polygon fill="black" stroke="black" points="1040.81,-481.35 1042.39,-470.88 1034.62,-478.08 1040.81,-481.35"/>
<text text-anchor="middle" x="1070.45" y="-492.8" font-family="Times,serif" font-size="14.00">Axiom 238</text>
</g>
<!-- 4388 -->
<g id="node34" class="node">
<title>4388</title>
<ellipse fill="none" stroke="black" cx="916.45" cy="-366" rx="34.39" ry="18"/>
<text text-anchor="middle" x="916.45" y="-362.3" font-family="Times,serif" font-size="14.00">4388</text>
</g>
<!-- 3985&#45;&gt;4388 -->
<g id="edge35" class="edge">
<title>3985&#45;&gt;4388</title>
<path fill="none" stroke="black" stroke-dasharray="1,5" d="M920.83,-435.03C919.48,-429.35 918.18,-422.94 917.45,-417 916.55,-409.7 916.14,-401.77 915.99,-394.41"/>
<polygon fill="black" stroke="black" points="919.48,-394.17 915.93,-384.19 912.48,-394.21 919.48,-394.17"/>
<text text-anchor="middle" x="989.95" y="-405.8" font-family="Times,serif" font-size="14.00">(401 nodes omitted)</text>
</g>
<!-- 5450 -->
<g id="node39" class="node">
<title>5450</title>
<ellipse fill="none" stroke="black" cx="1084.45" cy="-366" rx="34.39" ry="18"/>
<text text-anchor="middle" x="1084.45" y="-362.3" font-family="Times,serif" font-size="14.00">5450</text>
</g>
<!-- 3986&#45;&gt;5450 -->
<g id="edge36" class="edge">
<title>3986&#45;&gt;5450</title>
<path fill="none" stroke="black" stroke-dasharray="1,5" d="M1057.16,-435.21C1061.96,-423.22 1068.51,-406.85 1073.98,-393.16"/>
<polygon fill="black" stroke="black" points="1077.28,-394.34 1077.74,-383.76 1070.78,-391.74 1077.28,-394.34"/>
<text text-anchor="middle" x="1142.95" y="-405.8" font-family="Times,serif" font-size="14.00">(621 nodes omitted)</text>
</g>
<!-- 4389 -->
<g id="node35" class="node">
<title>4389</title>
<ellipse fill="none" stroke="black" cx="860.45" cy="-279" rx="34.39" ry="18"/>
<text text-anchor="middle" x="860.45" y="-275.3" font-family="Times,serif" font-size="14.00">4389</text>
</g>
<!-- 4388&#45;&gt;4389 -->
<g id="edge37" class="edge">
<title>4388&#45;&gt;4389</title>
<path fill="none" stroke="black" d="M898.41,-350.26C892.11,-344.45 885.39,-337.39 880.45,-330 875.69,-322.9 871.78,-314.49 868.72,-306.62"/>
<polygon fill="black" stroke="black" points="871.97,-305.31 865.3,-297.07 865.38,-307.67 871.97,-305.31"/>
<text text-anchor="middle" x="918.45" y="-318.8" font-family="Times,serif" font-size="14.00">Axiom 237</text>
</g>
<!-- 4390 -->
<g id="node36" class="node">
<title>4390</title>
<ellipse fill="none" stroke="black" cx="1011.45" cy="-279" rx="34.39" ry="18"/>
<text text-anchor="middle" x="1011.45" y="-275.3" font-family="Times,serif" font-size="14.00">4390</text>
</g>
<!-- 4388&#45;&gt;4390 -->
<g id="edge38" class="edge">
<title>4388&#45;&gt;4390</title>
<path fill="none" stroke="black" d="M933.64,-350.08C940.73,-343.9 949.01,-336.63 956.45,-330 966.68,-320.87 977.89,-310.71 987.51,-301.94"/>
<polygon fill="black" stroke="black" points="990.13,-304.29 995.16,-294.96 985.41,-299.12 990.13,-304.29"/>
<text text-anchor="middle" x="1010.45" y="-318.8" font-family="Times,serif" font-size="14.00">Axiom 238</text>
</g>
<!-- 4609 -->
<g id="node37" class="node">
<title>4609</title>
<ellipse fill="none" stroke="black" cx="859.45" cy="-192" rx="34.39" ry="18"/>
<text text-anchor="middle" x="859.45" y="-188.3" font-family="Times,serif" font-size="14.00">4609</text>
</g>
<!-- 4389&#45;&gt;4609 -->
<g id="edge39" class="edge">
<title>4389&#45;&gt;4609</title>
<path fill="none" stroke="black" stroke-dasharray="1,5" d="M860.24,-260.8C860.11,-249.16 859.92,-233.55 859.77,-220.24"/>
<polygon fill="black" stroke="black" points="863.27,-220.13 859.65,-210.18 856.27,-220.22 863.27,-220.13"/>
<text text-anchor="middle" x="932.95" y="-231.8" font-family="Times,serif" font-size="14.00">(218 nodes omitted)</text>
</g>
<!-- 4828 -->
<g id="node38" class="node">
<title>4828</title>
<ellipse fill="none" stroke="black" cx="1027.45" cy="-192" rx="34.39" ry="18"/>
<text text-anchor="middle" x="1027.45" y="-188.3" font-family="Times,serif" font-size="14.00">4828</text>
</g>
<!-- 4390&#45;&gt;4828 -->
<g id="edge40" class="edge">
<title>4390&#45;&gt;4828</title>
<path fill="none" stroke="black" stroke-dasharray="1,5" d="M1014.68,-260.8C1016.88,-249.16 1019.81,-233.55 1022.32,-220.24"/>
<polygon fill="black" stroke="black" points="1025.8,-220.65 1024.21,-210.18 1018.92,-219.36 1025.8,-220.65"/>
<text text-anchor="middle" x="1092.95" y="-231.8" font-family="Times,serif" font-size="14.00">(218 nodes omitted)</text>
</g>
<!-- 5544 -->
<g id="node41" class="node">
<title>5544</title>
<ellipse fill="none" stroke="black" cx="1232.45" cy="-627" rx="34.39" ry="18"/>
<text text-anchor="middle" x="1232.45" y="-623.3" font-family="Times,serif" font-size="14.00">5544</text>
</g>
<!-- 5543&#45;&gt;5544 -->
<g id="edge41" class="edge">
<title>5543&#45;&gt;5544</title>
<path fill="none" stroke="black" d="M1232.45,-695.8C1232.45,-684.16 1232.45,-668.55 1232.45,-655.24"/>
<polygon fill="black" stroke="black" points="1235.95,-655.18 1232.45,-645.18 1228.95,-655.18 1235.95,-655.18"/>
<text text-anchor="middle" x="1270.45" y="-666.8" font-family="Times,serif" font-size="14.00">Axiom 237</text>
</g>
<!-- 5545 -->
<g id="node42" class="node">
<title>5545</title>
<ellipse fill="none" stroke="black" cx="1382.45" cy="-627" rx="34.39" ry="18"/>
<text text-anchor="middle" x="1382.45" y="-623.3" font-family="Times,serif" font-size="14.00">5545</text>
</g>
<!-- 5543&#45;&gt;5545 -->
<g id="edge42" class="edge">
<title>5543&#45;&gt;5545</title>
<path fill="none" stroke="black" d="M1259.79,-702.68C1275.57,-696.33 1295.57,-687.58 1312.45,-678 1327.54,-669.43 1343.35,-658.34 1356.12,-648.79"/>
<polygon fill="black" stroke="black" points="1358.59,-651.3 1364.43,-642.46 1354.35,-645.73 1358.59,-651.3"/>
<text text-anchor="middle" x="1372.45" y="-666.8" font-family="Times,serif" font-size="14.00">Axiom 238</text>
</g>
<!-- 6004 -->
<g id="node43" class="node">
<title>6004</title>
<ellipse fill="none" stroke="black" cx="1273.45" cy="-540" rx="34.39" ry="18"/>
<text text-anchor="middle" x="1273.45" y="-536.3" font-family="Times,serif" font-size="14.00">6004</text>
</g>
<!-- 5544&#45;&gt;6004 -->
<g id="edge43" class="edge">
<title>5544&#45;&gt;6004</title>
<path fill="none" stroke="black" stroke-dasharray="1,5" d="M1232.72,-608.57C1233.48,-598.6 1235.48,-586.1 1240.45,-576 1242.64,-571.55 1245.59,-567.28 1248.82,-563.35"/>
<polygon fill="black" stroke="black" points="1251.56,-565.54 1255.73,-555.8 1246.4,-560.82 1251.56,-565.54"/>
<text text-anchor="middle" x="1312.95" y="-579.8" font-family="Times,serif" font-size="14.00">(458 nodes omitted)</text>
</g>
<!-- 7905 -->
<g id="node62" class="node">
<title>7905</title>
<ellipse fill="none" stroke="black" cx="1400.45" cy="-540" rx="34.39" ry="18"/>
<text text-anchor="middle" x="1400.45" y="-536.3" font-family="Times,serif" font-size="14.00">7905</text>
</g>
<!-- 5545&#45;&gt;7905 -->
<g id="edge44" class="edge">
<title>5545&#45;&gt;7905</title>
<path fill="none" stroke="black" stroke-dasharray="1,5" d="M1386.09,-608.8C1388.55,-597.16 1391.86,-581.55 1394.68,-568.24"/>
<polygon fill="black" stroke="black" points="1398.16,-568.68 1396.81,-558.18 1391.31,-567.23 1398.16,-568.68"/>
<text text-anchor="middle" x="1464.95" y="-579.8" font-family="Times,serif" font-size="14.00">(930 nodes omitted)</text>
</g>
<!-- 6005 -->
<g id="node44" class="node">
<title>6005</title>
<ellipse fill="none" stroke="black" cx="1273.45" cy="-453" rx="34.39" ry="18"/>
<text text-anchor="middle" x="1273.45" y="-449.3" font-family="Times,serif" font-size="14.00">6005</text>
</g>
<!-- 6004&#45;&gt;6005 -->
<g id="edge45" class="edge">
<title>6004&#45;&gt;6005</title>
<path fill="none" stroke="black" d="M1273.45,-521.8C1273.45,-510.16 1273.45,-494.55 1273.45,-481.24"/>
<polygon fill="black" stroke="black" points="1276.95,-481.18 1273.45,-471.18 1269.95,-481.18 1276.95,-481.18"/>
<text text-anchor="middle" x="1311.45" y="-492.8" font-family="Times,serif" font-size="14.00">Axiom 237</text>
</g>
<!-- 6006 -->
<g id="node45" class="node">
<title>6006</title>
<ellipse fill="none" stroke="black" cx="1477.45" cy="-453" rx="34.39" ry="18"/>
<text text-anchor="middle" x="1477.45" y="-449.3" font-family="Times,serif" font-size="14.00">6006</text>
</g>
<!-- 6004&#45;&gt;6006 -->
<g id="edge46" class="edge">
<title>6004&#45;&gt;6006</title>
<path fill="none" stroke="black" d="M1299.7,-528.06C1335.96,-512.95 1401.49,-485.65 1442.05,-468.75"/>
<polygon fill="black" stroke="black" points="1443.41,-471.97 1451.3,-464.9 1440.72,-465.51 1443.41,-471.97"/>
<text text-anchor="middle" x="1425.45" y="-492.8" font-family="Times,serif" font-size="14.00">Axiom 238</text>
</g>
<!-- 6446 -->
<g id="node46" class="node">
<title>6446</title>
<ellipse fill="none" stroke="black" cx="1273.45" cy="-366" rx="34.39" ry="18"/>
<text text-anchor="middle" x="1273.45" y="-362.3" font-family="Times,serif" font-size="14.00">6446</text>
</g>
<!-- 6005&#45;&gt;6446 -->
<g id="edge47" class="edge">
<title>6005&#45;&gt;6446</title>
<path fill="none" stroke="black" stroke-dasharray="1,5" d="M1273.45,-434.8C1273.45,-423.16 1273.45,-407.55 1273.45,-394.24"/>
<polygon fill="black" stroke="black" points="1276.95,-394.18 1273.45,-384.18 1269.95,-394.18 1276.95,-394.18"/>
<text text-anchor="middle" x="1345.95" y="-405.8" font-family="Times,serif" font-size="14.00">(439 nodes omitted)</text>
</g>
<!-- 6851 -->
<g id="node51" class="node">
<title>6851</title>
<ellipse fill="none" stroke="black" cx="1553.45" cy="-366" rx="34.39" ry="18"/>
<text text-anchor="middle" x="1553.45" y="-362.3" font-family="Times,serif" font-size="14.00">6851</text>
</g>
<!-- 6006&#45;&gt;6851 -->
<g id="edge48" class="edge">
<title>6006&#45;&gt;6851</title>
<path fill="none" stroke="black" stroke-dasharray="1,5" d="M1491.39,-436.41C1502.96,-423.47 1519.58,-404.87 1532.71,-390.19"/>
<polygon fill="black" stroke="black" points="1535.54,-392.28 1539.6,-382.49 1530.32,-387.61 1535.54,-392.28"/>
<text text-anchor="middle" x="1591.95" y="-405.8" font-family="Times,serif" font-size="14.00">(362 nodes omitted)</text>
</g>
<!-- 6447 -->
<g id="node47" class="node">
<title>6447</title>
<ellipse fill="none" stroke="black" cx="1207.45" cy="-279" rx="34.39" ry="18"/>
<text text-anchor="middle" x="1207.45" y="-275.3" font-family="Times,serif" font-size="14.00">6447</text>
</g>
<!-- 6446&#45;&gt;6447 -->
<g id="edge49" class="edge">
<title>6446&#45;&gt;6447</title>
<path fill="none" stroke="black" d="M1248.28,-353.46C1238.28,-347.72 1227.5,-339.87 1220.45,-330 1215.66,-323.3 1212.63,-314.98 1210.72,-307.06"/>
<polygon fill="black" stroke="black" points="1214.12,-306.21 1208.8,-297.05 1207.25,-307.53 1214.12,-306.21"/>
<text text-anchor="middle" x="1258.45" y="-318.8" font-family="Times,serif" font-size="14.00">Axiom 237</text>
</g>
<!-- 6448 -->
<g id="node48" class="node">
<title>6448</title>
<ellipse fill="none" stroke="black" cx="1338.45" cy="-279" rx="34.39" ry="18"/>
<text text-anchor="middle" x="1338.45" y="-275.3" font-family="Times,serif" font-size="14.00">6448</text>
</g>
<!-- 6446&#45;&gt;6448 -->
<g id="edge50" class="edge">
<title>6446&#45;&gt;6448</title>
<path fill="none" stroke="black" d="M1285.84,-348.99C1290.44,-343.03 1295.69,-336.22 1300.45,-330 1306.84,-321.65 1313.81,-312.49 1320.02,-304.32"/>
<polygon fill="black" stroke="black" points="1322.9,-306.32 1326.15,-296.24 1317.32,-302.09 1322.9,-306.32"/>
<text text-anchor="middle" x="1348.45" y="-318.8" font-family="Times,serif" font-size="14.00">Axiom 238</text>
</g>
<!-- 6458 -->
<g id="node49" class="node">
<title>6458</title>
<ellipse fill="none" stroke="#c80000" cx="1195.45" cy="-192" rx="34.39" ry="18"/>
<text text-anchor="middle" x="1195.45" y="-188.3" font-family="Times,serif" font-size="14.00">6458</text>
</g>
<!-- 6447&#45;&gt;6458 -->
<g id="edge51" class="edge">
<title>6447&#45;&gt;6458</title>
<path fill="none" stroke="black" stroke-dasharray="1,5" d="M1205.02,-260.8C1203.38,-249.16 1201.17,-233.55 1199.29,-220.24"/>
<polygon fill="black" stroke="black" points="1202.74,-219.59 1197.87,-210.18 1195.8,-220.57 1202.74,-219.59"/>
<text text-anchor="middle" x="1265.95" y="-231.8" font-family="Times,serif" font-size="14.00">(9 nodes omitted)</text>
</g>
<!-- 6488 -->
<g id="node50" class="node">
<title>6488</title>
<ellipse fill="none" stroke="black" cx="1345.45" cy="-192" rx="34.39" ry="18"/>
<text text-anchor="middle" x="1345.45" y="-188.3" font-family="Times,serif" font-size="14.00">6488</text>
</g>
<!-- 6448&#45;&gt;6488 -->
<g id="edge52" class="edge">
<title>6448&#45;&gt;6488</title>
<path fill="none" stroke="black" stroke-dasharray="1,5" d="M1339.86,-260.8C1340.82,-249.16 1342.11,-233.55 1343.2,-220.24"/>
<polygon fill="black" stroke="black" points="1346.7,-220.43 1344.03,-210.18 1339.72,-219.85 1346.7,-220.43"/>
<text text-anchor="middle" x="1409.45" y="-231.8" font-family="Times,serif" font-size="14.00">(29 nodes omitted)</text>
</g>
<!-- 6852 -->
<g id="node52" class="node">
<title>6852</title>
<ellipse fill="none" stroke="black" cx="1553.45" cy="-279" rx="34.39" ry="18"/>
<text text-anchor="middle" x="1553.45" y="-275.3" font-family="Times,serif" font-size="14.00">6852</text>
</g>
<!-- 6851&#45;&gt;6852 -->
<g id="edge53" class="edge">
<title>6851&#45;&gt;6852</title>
<path fill="none" stroke="black" d="M1553.45,-347.8C1553.45,-336.16 1553.45,-320.55 1553.45,-307.24"/>
<polygon fill="black" stroke="black" points="1556.95,-307.18 1553.45,-297.18 1549.95,-307.18 1556.95,-307.18"/>
<text text-anchor="middle" x="1591.45" y="-318.8" font-family="Times,serif" font-size="14.00">Axiom 237</text>
</g>
<!-- 6853 -->
<g id="node53" class="node">
<title>6853</title>
<ellipse fill="none" stroke="black" cx="1750.45" cy="-279" rx="34.39" ry="18"/>
<text text-anchor="middle" x="1750.45" y="-275.3" font-family="Times,serif" font-size="14.00">6853</text>
</g>
<!-- 6851&#45;&gt;6853 -->
<g id="edge54" class="edge">
<title>6851&#45;&gt;6853</title>
<path fill="none" stroke="black" d="M1579.2,-353.89C1614.01,-338.87 1676.19,-312.04 1715.28,-295.17"/>
<polygon fill="black" stroke="black" points="1716.89,-298.29 1724.69,-291.11 1714.12,-291.86 1716.89,-298.29"/>
<text text-anchor="middle" x="1701.45" y="-318.8" font-family="Times,serif" font-size="14.00">Axiom 238</text>
</g>
<!-- 6854 -->
<g id="node54" class="node">
<title>6854</title>
<ellipse fill="none" stroke="black" cx="1479.45" cy="-192" rx="34.39" ry="18"/>
<text text-anchor="middle" x="1479.45" y="-188.3" font-family="Times,serif" font-size="14.00">6854</text>
</g>
<!-- 6852&#45;&gt;6854 -->
<g id="edge55" class="edge">
<title>6852&#45;&gt;6854</title>
<path fill="none" stroke="black" d="M1529.49,-265.79C1519.81,-259.94 1509.13,-252.18 1501.45,-243 1495.74,-236.17 1491.26,-227.63 1487.87,-219.55"/>
<polygon fill="black" stroke="black" points="1491.1,-218.18 1484.28,-210.07 1484.55,-220.66 1491.1,-218.18"/>
<text text-anchor="middle" x="1539.45" y="-231.8" font-family="Times,serif" font-size="14.00">Axiom 326</text>
</g>
<!-- 6855 -->
<g id="node55" class="node">
<title>6855</title>
<ellipse fill="none" stroke="black" cx="1603.45" cy="-192" rx="34.39" ry="18"/>
<text text-anchor="middle" x="1603.45" y="-188.3" font-family="Times,serif" font-size="14.00">6855</text>
</g>
<!-- 6852&#45;&gt;6855 -->
<g id="edge56" class="edge">
<title>6852&#45;&gt;6855</title>
<path fill="none" stroke="black" d="M1567.48,-262.26C1572.26,-256.45 1577.42,-249.66 1581.45,-243 1585.94,-235.59 1590.03,-227.09 1593.43,-219.23"/>
<polygon fill="black" stroke="black" points="1596.76,-220.33 1597.35,-209.75 1590.29,-217.66 1596.76,-220.33"/>
<text text-anchor="middle" x="1626.95" y="-231.8" font-family="Times,serif" font-size="14.00">Remaining</text>
</g>
<!-- 6866 -->
<g id="node58" class="node">
<title>6866</title>
<ellipse fill="none" stroke="black" cx="1750.45" cy="-192" rx="34.39" ry="18"/>
<text text-anchor="middle" x="1750.45" y="-188.3" font-family="Times,serif" font-size="14.00">6866</text>
</g>
<!-- 6853&#45;&gt;6866 -->
<g id="edge57" class="edge">
<title>6853&#45;&gt;6866</title>
<path fill="none" stroke="black" d="M1750.45,-260.8C1750.45,-249.16 1750.45,-233.55 1750.45,-220.24"/>
<polygon fill="black" stroke="black" points="1753.95,-220.18 1750.45,-210.18 1746.95,-220.18 1753.95,-220.18"/>
<text text-anchor="middle" x="1788.45" y="-231.8" font-family="Times,serif" font-size="14.00">Axiom 253</text>
</g>
<!-- 6867 -->
<g id="node59" class="node">
<title>6867</title>
<ellipse fill="none" stroke="black" cx="1900.45" cy="-192" rx="34.39" ry="18"/>
<text text-anchor="middle" x="1900.45" y="-188.3" font-family="Times,serif" font-size="14.00">6867</text>
</g>
<!-- 6853&#45;&gt;6867 -->
<g id="edge58" class="edge">
<title>6853&#45;&gt;6867</title>
<path fill="none" stroke="black" d="M1777.79,-267.68C1793.57,-261.33 1813.57,-252.58 1830.45,-243 1845.54,-234.43 1861.35,-223.34 1874.12,-213.79"/>
<polygon fill="black" stroke="black" points="1876.59,-216.3 1882.43,-207.46 1872.35,-210.73 1876.59,-216.3"/>
<text text-anchor="middle" x="1890.95" y="-231.8" font-family="Times,serif" font-size="14.00">Remaining</text>
</g>
<!-- 6864 -->
<g id="node56" class="node">
<title>6864</title>
<ellipse fill="none" stroke="#c80000" cx="1453.45" cy="-105" rx="34.39" ry="18"/>
<text text-anchor="middle" x="1453.45" y="-101.3" font-family="Times,serif" font-size="14.00">6864</text>
</g>
<!-- 6854&#45;&gt;6864 -->
<g id="edge59" class="edge">
<title>6854&#45;&gt;6864</title>
<path fill="none" stroke="black" stroke-dasharray="1,5" d="M1474.19,-173.8C1470.57,-161.97 1465.69,-146.03 1461.58,-132.58"/>
<polygon fill="black" stroke="black" points="1464.88,-131.42 1458.61,-122.89 1458.19,-133.47 1464.88,-131.42"/>
<text text-anchor="middle" x="1530.95" y="-144.8" font-family="Times,serif" font-size="14.00">(8 nodes omitted)</text>
</g>
<!-- 6865 -->
<g id="node57" class="node">
<title>6865</title>
<ellipse fill="none" stroke="#00c800" cx="1603.45" cy="-105" rx="34.39" ry="18"/>
<text text-anchor="middle" x="1603.45" y="-101.3" font-family="Times,serif" font-size="14.00">6865</text>
</g>
<!-- 6855&#45;&gt;6865 -->
<g id="edge60" class="edge">
<title>6855&#45;&gt;6865</title>
<path fill="none" stroke="black" d="M1603.45,-173.8C1603.45,-162.16 1603.45,-146.55 1603.45,-133.24"/>
<polygon fill="black" stroke="black" points="1606.95,-133.18 1603.45,-123.18 1599.95,-133.18 1606.95,-133.18"/>
<text text-anchor="middle" x="1665.45" y="-144.8" font-family="Times,serif" font-size="14.00">CheckImplication</text>
</g>
<!-- 6973 -->
<g id="node60" class="node">
<title>6973</title>
<ellipse fill="none" stroke="black" cx="1750.45" cy="-105" rx="34.39" ry="18"/>
<text text-anchor="middle" x="1750.45" y="-101.3" font-family="Times,serif" font-size="14.00">6973</text>
</g>
<!-- 6866&#45;&gt;6973 -->
<g id="edge61" class="edge">
<title>6866&#45;&gt;6973</title>
<path fill="none" stroke="black" stroke-dasharray="1,5" d="M1750.45,-173.8C1750.45,-162.16 1750.45,-146.55 1750.45,-133.24"/>
<polygon fill="black" stroke="black" points="1753.95,-133.18 1750.45,-123.18 1746.95,-133.18 1753.95,-133.18"/>
<text text-anchor="middle" x="1822.95" y="-144.8" font-family="Times,serif" font-size="14.00">(105 nodes omitted)</text>
</g>
<!-- 6974 -->
<g id="node61" class="node">
<title>6974</title>
<ellipse fill="none" stroke="#00c800" cx="1918.45" cy="-105" rx="34.39" ry="18"/>
<text text-anchor="middle" x="1918.45" y="-101.3" font-family="Times,serif" font-size="14.00">6974</text>
</g>
<!-- 6867&#45;&gt;6974 -->
<g id="edge62" class="edge">
<title>6867&#45;&gt;6974</title>
<path fill="none" stroke="black" d="M1904.09,-173.8C1906.55,-162.16 1909.86,-146.55 1912.68,-133.24"/>
<polygon fill="black" stroke="black" points="1916.16,-133.68 1914.81,-123.18 1909.31,-132.23 1916.16,-133.68"/>
<text text-anchor="middle" x="1972.45" y="-144.8" font-family="Times,serif" font-size="14.00">CheckImplication</text>
</g>
</g>
</svg>
