<?xml version="1.0" encoding="UTF-8" standalone="no"?>
<!DOCTYPE svg PUBLIC "-//W3C//DTD SVG 1.1//EN"
 "http://www.w3.org/Graphics/SVG/1.1/DTD/svg11.dtd">
<!-- Generated by graphviz version 2.43.0 (0)
 -->
<!-- Title: %3 Pages: 1 -->
<svg width="627pt" height="740pt"
 viewBox="0.00 0.00 627.45 740.00" xmlns="http://www.w3.org/2000/svg" xmlns:xlink="http://www.w3.org/1999/xlink">
<g id="graph0" class="graph" transform="scale(1 1) rotate(0) translate(4 736)">
<title>%3</title>
<polygon fill="white" stroke="transparent" points="-4,4 -4,-736 623.45,-736 623.45,4 -4,4"/>
<!-- 0 -->
<g id="node1" class="node">
<title>0</title>
<ellipse fill="none" stroke="black" cx="418.45" cy="-714" rx="27" ry="18"/>
<text text-anchor="middle" x="418.45" y="-710.3" font-family="Times,serif" font-size="14.00">0</text>
</g>
<!-- 1 -->
<g id="node2" class="node">
<title>1</title>
<ellipse fill="none" stroke="black" cx="341.45" cy="-627" rx="27" ry="18"/>
<text text-anchor="middle" x="341.45" y="-623.3" font-family="Times,serif" font-size="14.00">1</text>
</g>
<!-- 0&#45;&gt;1 -->
<g id="edge1" class="edge">
<title>0&#45;&gt;1</title>
<path fill="none" stroke="black" d="M393.39,-707.19C377.61,-702.18 358.25,-693.25 347.45,-678 342.81,-671.45 340.73,-663.17 339.96,-655.24"/>
<polygon fill="black" stroke="black" points="343.46,-655.07 339.61,-645.2 336.46,-655.31 343.46,-655.07"/>
<text text-anchor="middle" x="406.95" y="-666.8" font-family="Times,serif" font-size="14.00">Axiom EVM.step</text>
</g>
<!-- 2 -->
<g id="node3" class="node">
<title>2</title>
<ellipse fill="none" stroke="black" cx="494.45" cy="-627" rx="27" ry="18"/>
<text text-anchor="middle" x="494.45" y="-623.3" font-family="Times,serif" font-size="14.00">2</text>
</g>
<!-- 0&#45;&gt;2 -->
<g id="edge2" class="edge">
<title>0&#45;&gt;2</title>
<path fill="none" stroke="black" d="M439.39,-702.38C449.75,-696.32 461.83,-687.96 470.45,-678 476.36,-671.16 481.16,-662.62 484.87,-654.54"/>
<polygon fill="black" stroke="black" points="488.21,-655.64 488.86,-645.06 481.76,-652.92 488.21,-655.64"/>
<text text-anchor="middle" x="518.95" y="-666.8" font-family="Times,serif" font-size="14.00">Remaining</text>
</g>
<!-- 975 -->
<g id="node4" class="node">
<title>975</title>
<ellipse fill="none" stroke="black" cx="328.45" cy="-540" rx="28.7" ry="18"/>
<text text-anchor="middle" x="328.45" y="-536.3" font-family="Times,serif" font-size="14.00">975</text>
</g>
<!-- 1&#45;&gt;975 -->
<g id="edge3" class="edge">
<title>1&#45;&gt;975</title>
<path fill="none" stroke="black" stroke-dasharray="1,5" d="M338.82,-608.8C337.04,-597.16 334.65,-581.55 332.61,-568.24"/>
<polygon fill="black" stroke="black" points="336.05,-567.53 331.07,-558.18 329.13,-568.59 336.05,-567.53"/>
<text text-anchor="middle" x="408.95" y="-579.8" font-family="Times,serif" font-size="14.00">(972 nodes omitted)</text>
</g>
<!-- 1028 -->
<g id="node7" class="node">
<title>1028</title>
<ellipse fill="none" stroke="#00c800" cx="496.45" cy="-540" rx="34.39" ry="18"/>
<text text-anchor="middle" x="496.45" y="-536.3" font-family="Times,serif" font-size="14.00">1028</text>
</g>
<!-- 2&#45;&gt;1028 -->
<g id="edge4" class="edge">
<title>2&#45;&gt;1028</title>
<path fill="none" stroke="black" d="M494.85,-608.8C495.13,-597.16 495.49,-581.55 495.81,-568.24"/>
<polygon fill="black" stroke="black" points="499.31,-568.26 496.04,-558.18 492.31,-568.09 499.31,-568.26"/>
<text text-anchor="middle" x="557.45" y="-579.8" font-family="Times,serif" font-size="14.00">CheckImplication</text>
</g>
<!-- 976 -->
<g id="node5" class="node">
<title>976</title>
<ellipse fill="none" stroke="black" cx="262.45" cy="-453" rx="28.7" ry="18"/>
<text text-anchor="middle" x="262.45" y="-449.3" font-family="Times,serif" font-size="14.00">976</text>
</g>
<!-- 975&#45;&gt;976 -->
<g id="edge5" class="edge">
<title>975&#45;&gt;976</title>
<path fill="none" stroke="black" d="M307,-527.78C297.42,-521.83 286.68,-513.73 279.45,-504 274.37,-497.17 270.74,-488.72 268.18,-480.72"/>
<polygon fill="black" stroke="black" points="271.52,-479.69 265.47,-470.99 264.78,-481.56 271.52,-479.69"/>
<text text-anchor="middle" x="317.45" y="-492.8" font-family="Times,serif" font-size="14.00">Axiom 237</text>
</g>
<!-- 977 -->
<g id="node6" class="node">
<title>977</title>
<ellipse fill="none" stroke="black" cx="391.45" cy="-453" rx="28.7" ry="18"/>
<text text-anchor="middle" x="391.45" y="-449.3" font-family="Times,serif" font-size="14.00">977</text>
</g>
<!-- 975&#45;&gt;977 -->
<g id="edge6" class="edge">
<title>975&#45;&gt;977</title>
<path fill="none" stroke="black" d="M342.56,-524.1C348.05,-518.05 354.26,-510.86 359.45,-504 365.41,-496.11 371.39,-487.12 376.55,-478.95"/>
<polygon fill="black" stroke="black" points="379.68,-480.53 381.97,-470.19 373.73,-476.85 379.68,-480.53"/>
<text text-anchor="middle" x="408.45" y="-492.8" font-family="Times,serif" font-size="14.00">Axiom 238</text>
</g>
<!-- 1482 -->
<g id="node8" class="node">
<title>1482</title>
<ellipse fill="none" stroke="black" cx="228.45" cy="-366" rx="34.39" ry="18"/>
<text text-anchor="middle" x="228.45" y="-362.3" font-family="Times,serif" font-size="14.00">1482</text>
</g>
<!-- 976&#45;&gt;1482 -->
<g id="edge7" class="edge">
<title>976&#45;&gt;1482</title>
<path fill="none" stroke="black" stroke-dasharray="1,5" d="M253.89,-435.46C251.04,-429.69 247.96,-423.12 245.45,-417 242.35,-409.45 239.35,-401.11 236.75,-393.44"/>
<polygon fill="black" stroke="black" points="240.05,-392.26 233.6,-383.86 233.4,-394.45 240.05,-392.26"/>
<text text-anchor="middle" x="317.95" y="-405.8" font-family="Times,serif" font-size="14.00">(478 nodes omitted)</text>
</g>
<!-- 3536 -->
<g id="node17" class="node">
<title>3536</title>
<ellipse fill="none" stroke="black" cx="396.45" cy="-366" rx="34.39" ry="18"/>
<text text-anchor="middle" x="396.45" y="-362.3" font-family="Times,serif" font-size="14.00">3536</text>
</g>
<!-- 977&#45;&gt;3536 -->
<g id="edge8" class="edge">
<title>977&#45;&gt;3536</title>
<path fill="none" stroke="black" stroke-dasharray="1,5" d="M392.46,-434.8C393.14,-423.16 394.06,-407.55 394.84,-394.24"/>
<polygon fill="black" stroke="black" points="398.34,-394.36 395.44,-384.18 391.36,-393.95 398.34,-394.36"/>
<text text-anchor="middle" x="466.95" y="-405.8" font-family="Times,serif" font-size="14.00">(998 nodes omitted)</text>
</g>
<!-- 1483 -->
<g id="node9" class="node">
<title>1483</title>
<ellipse fill="none" stroke="black" cx="162.45" cy="-279" rx="34.39" ry="18"/>
<text text-anchor="middle" x="162.45" y="-275.3" font-family="Times,serif" font-size="14.00">1483</text>
</g>
<!-- 1482&#45;&gt;1483 -->
<g id="edge9" class="edge">
<title>1482&#45;&gt;1483</title>
<path fill="none" stroke="black" d="M205.26,-352.68C196.14,-346.85 186.24,-339.15 179.45,-330 174.37,-323.17 170.74,-314.72 168.18,-306.72"/>
<polygon fill="black" stroke="black" points="171.52,-305.69 165.47,-296.99 164.78,-307.56 171.52,-305.69"/>
<text text-anchor="middle" x="217.45" y="-318.8" font-family="Times,serif" font-size="14.00">Axiom 237</text>
</g>
<!-- 1484 -->
<g id="node10" class="node">
<title>1484</title>
<ellipse fill="none" stroke="black" cx="291.45" cy="-279" rx="34.39" ry="18"/>
<text text-anchor="middle" x="291.45" y="-275.3" font-family="Times,serif" font-size="14.00">1484</text>
</g>
<!-- 1482&#45;&gt;1484 -->
<g id="edge10" class="edge">
<title>1482&#45;&gt;1484</title>
<path fill="none" stroke="black" d="M243.19,-349.41C248.52,-343.5 254.46,-336.61 259.45,-330 265.32,-322.23 271.21,-313.39 276.31,-305.32"/>
<polygon fill="black" stroke="black" points="279.4,-306.99 281.69,-296.65 273.45,-303.3 279.4,-306.99"/>
<text text-anchor="middle" x="308.45" y="-318.8" font-family="Times,serif" font-size="14.00">Axiom 238</text>
</g>
<!-- 1963 -->
<g id="node11" class="node">
<title>1963</title>
<ellipse fill="none" stroke="black" cx="128.45" cy="-192" rx="34.39" ry="18"/>
<text text-anchor="middle" x="128.45" y="-188.3" font-family="Times,serif" font-size="14.00">1963</text>
</g>
<!-- 1483&#45;&gt;1963 -->
<g id="edge11" class="edge">
<title>1483&#45;&gt;1963</title>
<path fill="none" stroke="black" stroke-dasharray="1,5" d="M153.89,-261.46C151.04,-255.69 147.96,-249.12 145.45,-243 142.35,-235.45 139.35,-227.11 136.75,-219.44"/>
<polygon fill="black" stroke="black" points="140.05,-218.26 133.6,-209.86 133.4,-220.45 140.05,-218.26"/>
<text text-anchor="middle" x="217.95" y="-231.8" font-family="Times,serif" font-size="14.00">(478 nodes omitted)</text>
</g>
<!-- 2562 -->
<g id="node16" class="node">
<title>2562</title>
<ellipse fill="none" stroke="black" cx="296.45" cy="-192" rx="34.39" ry="18"/>
<text text-anchor="middle" x="296.45" y="-188.3" font-family="Times,serif" font-size="14.00">2562</text>
</g>
<!-- 1484&#45;&gt;2562 -->
<g id="edge12" class="edge">
<title>1484&#45;&gt;2562</title>
<path fill="none" stroke="black" stroke-dasharray="1,5" d="M292.46,-260.8C293.14,-249.16 294.06,-233.55 294.84,-220.24"/>
<polygon fill="black" stroke="black" points="298.34,-220.36 295.44,-210.18 291.36,-219.95 298.34,-220.36"/>
<text text-anchor="middle" x="366.95" y="-231.8" font-family="Times,serif" font-size="14.00">(518 nodes omitted)</text>
</g>
<!-- 1964 -->
<g id="node12" class="node">
<title>1964</title>
<ellipse fill="none" stroke="black" cx="64.45" cy="-105" rx="34.39" ry="18"/>
<text text-anchor="middle" x="64.45" y="-101.3" font-family="Times,serif" font-size="14.00">1964</text>
</g>
<!-- 1963&#45;&gt;1964 -->
<g id="edge13" class="edge">
<title>1963&#45;&gt;1964</title>
<path fill="none" stroke="black" d="M104.84,-178.64C95.76,-172.85 86.02,-165.18 79.45,-156 74.61,-149.24 71.31,-140.89 69.07,-132.98"/>
<polygon fill="black" stroke="black" points="72.41,-131.9 66.7,-122.98 65.6,-133.52 72.41,-131.9"/>
<text text-anchor="middle" x="117.45" y="-144.8" font-family="Times,serif" font-size="14.00">Axiom 237</text>
</g>
<!-- 1965 -->
<g id="node13" class="node">
<title>1965</title>
<ellipse fill="none" stroke="black" cx="189.45" cy="-105" rx="34.39" ry="18"/>
<text text-anchor="middle" x="189.45" y="-101.3" font-family="Times,serif" font-size="14.00">1965</text>
</g>
<!-- 1963&#45;&gt;1965 -->
<g id="edge14" class="edge">
<title>1963&#45;&gt;1965</title>
<path fill="none" stroke="black" d="M143.29,-175.49C148.64,-169.59 154.55,-162.68 159.45,-156 165.1,-148.29 170.67,-139.46 175.44,-131.39"/>
<polygon fill="black" stroke="black" points="178.49,-133.11 180.45,-122.7 172.42,-129.61 178.49,-133.11"/>
<text text-anchor="middle" x="207.45" y="-144.8" font-family="Times,serif" font-size="14.00">Axiom 238</text>
</g>
<!-- 2004 -->
<g id="node14" class="node">
<title>2004</title>
<ellipse fill="none" stroke="black" cx="34.45" cy="-18" rx="34.39" ry="18"/>
<text text-anchor="middle" x="34.45" y="-14.3" font-family="Times,serif" font-size="14.00">2004</text>
</g>
<!-- 1964&#45;&gt;2004 -->
<g id="edge15" class="edge">
<title>1964&#45;&gt;2004</title>
<path fill="none" stroke="black" stroke-dasharray="1,5" d="M58.14,-87.3C55.98,-81.52 53.58,-74.99 51.45,-69 48.79,-61.52 45.98,-53.37 43.43,-45.87"/>
<polygon fill="black" stroke="black" points="46.67,-44.52 40.15,-36.17 40.04,-46.76 46.67,-44.52"/>
<text text-anchor="middle" x="119.45" y="-57.8" font-family="Times,serif" font-size="14.00">(38 nodes omitted)</text>
</g>
<!-- 2043 -->
<g id="node15" class="node">
<title>2043</title>
<ellipse fill="none" stroke="black" cx="193.45" cy="-18" rx="34.39" ry="18"/>
<text text-anchor="middle" x="193.45" y="-14.3" font-family="Times,serif" font-size="14.00">2043</text>
</g>
<!-- 1965&#45;&gt;2043 -->
<g id="edge16" class="edge">
<title>1965&#45;&gt;2043</title>
<path fill="none" stroke="black" stroke-dasharray="1,5" d="M190.26,-86.8C190.8,-75.16 191.54,-59.55 192.17,-46.24"/>
<polygon fill="black" stroke="black" points="195.66,-46.33 192.64,-36.18 188.67,-46 195.66,-46.33"/>
<text text-anchor="middle" x="260.45" y="-57.8" font-family="Times,serif" font-size="14.00">(38 nodes omitted)</text>
</g>
</g>
</svg>
