<?xml version="1.0" encoding="UTF-8" standalone="no"?>
<!DOCTYPE svg PUBLIC "-//W3C//DTD SVG 1.1//EN"
 "http://www.w3.org/Graphics/SVG/1.1/DTD/svg11.dtd">
<!-- Generated by graphviz version 2.43.0 (0)
 -->
<!-- Title: %3 Pages: 1 -->
<svg width="345pt" height="914pt"
 viewBox="0.00 0.00 345.45 914.00" xmlns="http://www.w3.org/2000/svg" xmlns:xlink="http://www.w3.org/1999/xlink">
<g id="graph0" class="graph" transform="scale(1 1) rotate(0) translate(4 910)">
<title>%3</title>
<polygon fill="white" stroke="transparent" points="-4,4 -4,-910 341.45,-910 341.45,4 -4,4"/>
<!-- 0 -->
<g id="node1" class="node">
<title>0</title>
<ellipse fill="none" stroke="black" cx="202.45" cy="-888" rx="27" ry="18"/>
<text text-anchor="middle" x="202.45" y="-884.3" font-family="Times,serif" font-size="14.00">0</text>
</g>
<!-- 1 -->
<g id="node2" class="node">
<title>1</title>
<ellipse fill="none" stroke="black" cx="131.45" cy="-801" rx="27" ry="18"/>
<text text-anchor="middle" x="131.45" y="-797.3" font-family="Times,serif" font-size="14.00">1</text>
</g>
<!-- 0&#45;&gt;1 -->
<g id="edge1" class="edge">
<title>0&#45;&gt;1</title>
<path fill="none" stroke="black" d="M177.23,-881.44C161.46,-876.52 142.32,-867.62 132.45,-852 128.19,-845.26 126.86,-836.93 126.9,-829.01"/>
<polygon fill="black" stroke="black" points="130.39,-829.23 127.61,-819.01 123.41,-828.73 130.39,-829.23"/>
<text text-anchor="middle" x="191.95" y="-840.8" font-family="Times,serif" font-size="14.00">Axiom EVM.step</text>
</g>
<!-- 2 -->
<g id="node3" class="node">
<title>2</title>
<ellipse fill="none" stroke="black" cx="273.45" cy="-801" rx="27" ry="18"/>
<text text-anchor="middle" x="273.45" y="-797.3" font-family="Times,serif" font-size="14.00">2</text>
</g>
<!-- 0&#45;&gt;2 -->
<g id="edge2" class="edge">
<title>0&#45;&gt;2</title>
<path fill="none" stroke="black" d="M223.03,-875.8C232.65,-869.76 243.67,-861.57 251.45,-852 257.06,-845.09 261.51,-836.53 264.91,-828.46"/>
<polygon fill="black" stroke="black" points="268.22,-829.58 268.52,-818.99 261.68,-827.08 268.22,-829.58"/>
<text text-anchor="middle" x="298.95" y="-840.8" font-family="Times,serif" font-size="14.00">Remaining</text>
</g>
<!-- 975 -->
<g id="node4" class="node">
<title>975</title>
<ellipse fill="none" stroke="black" cx="131.45" cy="-714" rx="28.7" ry="18"/>
<text text-anchor="middle" x="131.45" y="-710.3" font-family="Times,serif" font-size="14.00">975</text>
</g>
<!-- 1&#45;&gt;975 -->
<g id="edge3" class="edge">
<title>1&#45;&gt;975</title>
<path fill="none" stroke="black" stroke-dasharray="1,5" d="M131.45,-782.8C131.45,-771.16 131.45,-755.55 131.45,-742.24"/>
<polygon fill="black" stroke="black" points="134.95,-742.18 131.45,-732.18 127.95,-742.18 134.95,-742.18"/>
<text text-anchor="middle" x="203.95" y="-753.8" font-family="Times,serif" font-size="14.00">(972 nodes omitted)</text>
</g>
<!-- 976 -->
<g id="node5" class="node">
<title>976</title>
<ellipse fill="none" stroke="black" cx="82.45" cy="-627" rx="28.7" ry="18"/>
<text text-anchor="middle" x="82.45" y="-623.3" font-family="Times,serif" font-size="14.00">976</text>
</g>
<!-- 975&#45;&gt;976 -->
<g id="edge4" class="edge">
<title>975&#45;&gt;976</title>
<path fill="none" stroke="black" d="M109.04,-702.57C99.35,-696.79 88.98,-688.61 83.45,-678 79.86,-671.12 78.66,-662.95 78.61,-655.23"/>
<polygon fill="black" stroke="black" points="82.11,-655.31 79.14,-645.14 75.12,-654.94 82.11,-655.31"/>
<text text-anchor="middle" x="121.45" y="-666.8" font-family="Times,serif" font-size="14.00">Axiom 219</text>
</g>
<!-- 977 -->
<g id="node6" class="node">
<title>977</title>
<ellipse fill="none" stroke="black" cx="181.45" cy="-627" rx="28.7" ry="18"/>
<text text-anchor="middle" x="181.45" y="-623.3" font-family="Times,serif" font-size="14.00">977</text>
</g>
<!-- 975&#45;&gt;977 -->
<g id="edge5" class="edge">
<title>975&#45;&gt;977</title>
<path fill="none" stroke="black" d="M144.9,-697.96C149.85,-692 155.25,-684.92 159.45,-678 163.94,-670.59 168.03,-662.09 171.43,-654.23"/>
<polygon fill="black" stroke="black" points="174.76,-655.33 175.35,-644.75 168.29,-652.66 174.76,-655.33"/>
<text text-anchor="middle" x="205.45" y="-666.8" font-family="Times,serif" font-size="14.00">Axiom 220</text>
</g>
<!-- 1070 -->
<g id="node7" class="node">
<title>1070</title>
<ellipse fill="none" stroke="black" cx="181.45" cy="-540" rx="34.39" ry="18"/>
<text text-anchor="middle" x="181.45" y="-536.3" font-family="Times,serif" font-size="14.00">1070</text>
</g>
<!-- 977&#45;&gt;1070 -->
<g id="edge6" class="edge">
<title>977&#45;&gt;1070</title>
<path fill="none" stroke="black" stroke-dasharray="1,5" d="M181.45,-608.8C181.45,-597.16 181.45,-581.55 181.45,-568.24"/>
<polygon fill="black" stroke="black" points="184.95,-568.18 181.45,-558.18 177.95,-568.18 184.95,-568.18"/>
<text text-anchor="middle" x="249.45" y="-579.8" font-family="Times,serif" font-size="14.00">(92 nodes omitted)</text>
</g>
<!-- 1071 -->
<g id="node8" class="node">
<title>1071</title>
<ellipse fill="none" stroke="black" cx="132.45" cy="-453" rx="34.39" ry="18"/>
<text text-anchor="middle" x="132.45" y="-449.3" font-family="Times,serif" font-size="14.00">1071</text>
</g>
<!-- 1070&#45;&gt;1071 -->
<g id="edge7" class="edge">
<title>1070&#45;&gt;1071</title>
<path fill="none" stroke="black" d="M156.78,-527.18C147.77,-521.51 138.55,-513.79 133.45,-504 129.86,-497.12 128.66,-488.95 128.61,-481.23"/>
<polygon fill="black" stroke="black" points="132.11,-481.31 129.14,-471.14 125.12,-480.94 132.11,-481.31"/>
<text text-anchor="middle" x="171.45" y="-492.8" font-family="Times,serif" font-size="14.00">Axiom 219</text>
</g>
<!-- 1072 -->
<g id="node9" class="node">
<title>1072</title>
<ellipse fill="none" stroke="black" cx="231.45" cy="-453" rx="34.39" ry="18"/>
<text text-anchor="middle" x="231.45" y="-449.3" font-family="Times,serif" font-size="14.00">1072</text>
</g>
<!-- 1070&#45;&gt;1072 -->
<g id="edge8" class="edge">
<title>1070&#45;&gt;1072</title>
<path fill="none" stroke="black" d="M195.48,-523.26C200.26,-517.45 205.42,-510.66 209.45,-504 213.94,-496.59 218.03,-488.09 221.43,-480.23"/>
<polygon fill="black" stroke="black" points="224.76,-481.33 225.35,-470.75 218.29,-478.66 224.76,-481.33"/>
<text text-anchor="middle" x="255.45" y="-492.8" font-family="Times,serif" font-size="14.00">Axiom 220</text>
</g>
<!-- 1531 -->
<g id="node10" class="node">
<title>1531</title>
<ellipse fill="none" stroke="black" cx="132.45" cy="-366" rx="34.39" ry="18"/>
<text text-anchor="middle" x="132.45" y="-362.3" font-family="Times,serif" font-size="14.00">1531</text>
</g>
<!-- 1071&#45;&gt;1531 -->
<g id="edge9" class="edge">
<title>1071&#45;&gt;1531</title>
<path fill="none" stroke="black" stroke-dasharray="1,5" d="M132.45,-434.8C132.45,-423.16 132.45,-407.55 132.45,-394.24"/>
<polygon fill="black" stroke="black" points="135.95,-394.18 132.45,-384.18 128.95,-394.18 135.95,-394.18"/>
<text text-anchor="middle" x="204.95" y="-405.8" font-family="Times,serif" font-size="14.00">(458 nodes omitted)</text>
</g>
<!-- 1532 -->
<g id="node11" class="node">
<title>1532</title>
<ellipse fill="none" stroke="black" cx="83.45" cy="-279" rx="34.39" ry="18"/>
<text text-anchor="middle" x="83.45" y="-275.3" font-family="Times,serif" font-size="14.00">1532</text>
</g>
<!-- 1531&#45;&gt;1532 -->
<g id="edge10" class="edge">
<title>1531&#45;&gt;1532</title>
<path fill="none" stroke="black" d="M107.78,-353.18C98.77,-347.51 89.55,-339.79 84.45,-330 80.86,-323.12 79.66,-314.95 79.61,-307.23"/>
<polygon fill="black" stroke="black" points="83.11,-307.31 80.14,-297.14 76.12,-306.94 83.11,-307.31"/>
<text text-anchor="middle" x="122.45" y="-318.8" font-family="Times,serif" font-size="14.00">Axiom 219</text>
</g>
<!-- 1533 -->
<g id="node12" class="node">
<title>1533</title>
<ellipse fill="none" stroke="black" cx="182.45" cy="-279" rx="34.39" ry="18"/>
<text text-anchor="middle" x="182.45" y="-275.3" font-family="Times,serif" font-size="14.00">1533</text>
</g>
<!-- 1531&#45;&gt;1533 -->
<g id="edge11" class="edge">
<title>1531&#45;&gt;1533</title>
<path fill="none" stroke="black" d="M146.48,-349.26C151.26,-343.45 156.42,-336.66 160.45,-330 164.94,-322.59 169.03,-314.09 172.43,-306.23"/>
<polygon fill="black" stroke="black" points="175.76,-307.33 176.35,-296.75 169.29,-304.66 175.76,-307.33"/>
<text text-anchor="middle" x="206.45" y="-318.8" font-family="Times,serif" font-size="14.00">Axiom 220</text>
</g>
<!-- 1973 -->
<g id="node13" class="node">
<title>1973</title>
<ellipse fill="none" stroke="black" cx="83.45" cy="-192" rx="34.39" ry="18"/>
<text text-anchor="middle" x="83.45" y="-188.3" font-family="Times,serif" font-size="14.00">1973</text>
</g>
<!-- 1532&#45;&gt;1973 -->
<g id="edge12" class="edge">
<title>1532&#45;&gt;1973</title>
<path fill="none" stroke="black" stroke-dasharray="1,5" d="M83.45,-260.8C83.45,-249.16 83.45,-233.55 83.45,-220.24"/>
<polygon fill="black" stroke="black" points="86.95,-220.18 83.45,-210.18 79.95,-220.18 86.95,-220.18"/>
<text text-anchor="middle" x="155.95" y="-231.8" font-family="Times,serif" font-size="14.00">(439 nodes omitted)</text>
</g>
<!-- 1974 -->
<g id="node14" class="node">
<title>1974</title>
<ellipse fill="none" stroke="black" cx="34.45" cy="-105" rx="34.39" ry="18"/>
<text text-anchor="middle" x="34.45" y="-101.3" font-family="Times,serif" font-size="14.00">1974</text>
</g>
<!-- 1973&#45;&gt;1974 -->
<g id="edge13" class="edge">
<title>1973&#45;&gt;1974</title>
<path fill="none" stroke="black" d="M58.78,-179.18C49.77,-173.51 40.55,-165.79 35.45,-156 31.86,-149.12 30.66,-140.95 30.61,-133.23"/>
<polygon fill="black" stroke="black" points="34.11,-133.31 31.14,-123.14 27.12,-132.94 34.11,-133.31"/>
<text text-anchor="middle" x="73.45" y="-144.8" font-family="Times,serif" font-size="14.00">Axiom 219</text>
</g>
<!-- 1975 -->
<g id="node15" class="node">
<title>1975</title>
<ellipse fill="none" stroke="black" cx="133.45" cy="-105" rx="34.39" ry="18"/>
<text text-anchor="middle" x="133.45" y="-101.3" font-family="Times,serif" font-size="14.00">1975</text>
</g>
<!-- 1973&#45;&gt;1975 -->
<g id="edge14" class="edge">
<title>1973&#45;&gt;1975</title>
<path fill="none" stroke="black" d="M97.48,-175.26C102.26,-169.45 107.42,-162.66 111.45,-156 115.94,-148.59 120.03,-140.09 123.43,-132.23"/>
<polygon fill="black" stroke="black" points="126.76,-133.33 127.35,-122.75 120.29,-130.66 126.76,-133.33"/>
<text text-anchor="middle" x="157.45" y="-144.8" font-family="Times,serif" font-size="14.00">Axiom 220</text>
</g>
<!-- 1985 -->
<g id="node16" class="node">
<title>1985</title>
<ellipse fill="none" stroke="#c80000" cx="34.45" cy="-18" rx="34.39" ry="18"/>
<text text-anchor="middle" x="34.45" y="-14.3" font-family="Times,serif" font-size="14.00">1985</text>
</g>
<!-- 1974&#45;&gt;1985 -->
<g id="edge15" class="edge">
<title>1974&#45;&gt;1985</title>
<path fill="none" stroke="black" stroke-dasharray="1,5" d="M34.45,-86.8C34.45,-75.16 34.45,-59.55 34.45,-46.24"/>
<polygon fill="black" stroke="black" points="37.95,-46.18 34.45,-36.18 30.95,-46.18 37.95,-46.18"/>
<text text-anchor="middle" x="97.95" y="-57.8" font-family="Times,serif" font-size="14.00">(9 nodes omitted)</text>
</g>
</g>
</svg>
