<?xml version="1.0" encoding="UTF-8" standalone="no"?>
<!DOCTYPE svg PUBLIC "-//W3C//DTD SVG 1.1//EN"
 "http://www.w3.org/Graphics/SVG/1.1/DTD/svg11.dtd">
<!-- Generated by graphviz version 2.43.0 (0)
 -->
<!-- Title: %3 Pages: 1 -->
<svg width="1710pt" height="1436pt"
 viewBox="0.00 0.00 1710.45 1436.00" xmlns="http://www.w3.org/2000/svg" xmlns:xlink="http://www.w3.org/1999/xlink">
<g id="graph0" class="graph" transform="scale(1 1) rotate(0) translate(4 1432)">
<title>%3</title>
<polygon fill="white" stroke="transparent" points="-4,4 -4,-1432 1706.45,-1432 1706.45,4 -4,4"/>
<!-- 0 -->
<g id="node1" class="node">
<title>0</title>
<ellipse fill="none" stroke="black" cx="1362.45" cy="-1410" rx="27" ry="18"/>
<text text-anchor="middle" x="1362.45" y="-1406.3" font-family="Times,serif" font-size="14.00">0</text>
</g>
<!-- 1 -->
<g id="node2" class="node">
<title>1</title>
<ellipse fill="none" stroke="black" cx="1285.45" cy="-1323" rx="27" ry="18"/>
<text text-anchor="middle" x="1285.45" y="-1319.3" font-family="Times,serif" font-size="14.00">1</text>
</g>
<!-- 0&#45;&gt;1 -->
<g id="edge1" class="edge">
<title>0&#45;&gt;1</title>
<path fill="none" stroke="black" d="M1337.39,-1403.19C1321.61,-1398.18 1302.25,-1389.25 1291.45,-1374 1286.81,-1367.45 1284.73,-1359.17 1283.96,-1351.24"/>
<polygon fill="black" stroke="black" points="1287.46,-1351.07 1283.61,-1341.2 1280.46,-1351.31 1287.46,-1351.07"/>
<text text-anchor="middle" x="1350.95" y="-1362.8" font-family="Times,serif" font-size="14.00">Axiom EVM.step</text>
</g>
<!-- 2 -->
<g id="node3" class="node">
<title>2</title>
<ellipse fill="none" stroke="black" cx="1438.45" cy="-1323" rx="27" ry="18"/>
<text text-anchor="middle" x="1438.45" y="-1319.3" font-family="Times,serif" font-size="14.00">2</text>
</g>
<!-- 0&#45;&gt;2 -->
<g id="edge2" class="edge">
<title>0&#45;&gt;2</title>
<path fill="none" stroke="black" d="M1383.39,-1398.38C1393.75,-1392.32 1405.83,-1383.96 1414.45,-1374 1420.36,-1367.16 1425.16,-1358.62 1428.87,-1350.54"/>
<polygon fill="black" stroke="black" points="1432.21,-1351.64 1432.86,-1341.06 1425.76,-1348.92 1432.21,-1351.64"/>
<text text-anchor="middle" x="1462.95" y="-1362.8" font-family="Times,serif" font-size="14.00">Remaining</text>
</g>
<!-- 975 -->
<g id="node4" class="node">
<title>975</title>
<ellipse fill="none" stroke="black" cx="1272.45" cy="-1236" rx="28.7" ry="18"/>
<text text-anchor="middle" x="1272.45" y="-1232.3" font-family="Times,serif" font-size="14.00">975</text>
</g>
<!-- 1&#45;&gt;975 -->
<g id="edge3" class="edge">
<title>1&#45;&gt;975</title>
<path fill="none" stroke="black" stroke-dasharray="1,5" d="M1282.82,-1304.8C1281.04,-1293.16 1278.65,-1277.55 1276.61,-1264.24"/>
<polygon fill="black" stroke="black" points="1280.05,-1263.53 1275.07,-1254.18 1273.13,-1264.59 1280.05,-1263.53"/>
<text text-anchor="middle" x="1352.95" y="-1275.8" font-family="Times,serif" font-size="14.00">(972 nodes omitted)</text>
</g>
<!-- 1028 -->
<g id="node7" class="node">
<title>1028</title>
<ellipse fill="none" stroke="#00c800" cx="1440.45" cy="-1236" rx="34.39" ry="18"/>
<text text-anchor="middle" x="1440.45" y="-1232.3" font-family="Times,serif" font-size="14.00">1028</text>
</g>
<!-- 2&#45;&gt;1028 -->
<g id="edge4" class="edge">
<title>2&#45;&gt;1028</title>
<path fill="none" stroke="black" d="M1438.85,-1304.8C1439.13,-1293.16 1439.49,-1277.55 1439.81,-1264.24"/>
<polygon fill="black" stroke="black" points="1443.31,-1264.26 1440.04,-1254.18 1436.31,-1264.09 1443.31,-1264.26"/>
<text text-anchor="middle" x="1501.45" y="-1275.8" font-family="Times,serif" font-size="14.00">CheckImplication</text>
</g>
<!-- 976 -->
<g id="node5" class="node">
<title>976</title>
<ellipse fill="none" stroke="black" cx="1206.45" cy="-1149" rx="28.7" ry="18"/>
<text text-anchor="middle" x="1206.45" y="-1145.3" font-family="Times,serif" font-size="14.00">976</text>
</g>
<!-- 975&#45;&gt;976 -->
<g id="edge5" class="edge">
<title>975&#45;&gt;976</title>
<path fill="none" stroke="black" d="M1254.9,-1221.5C1247.71,-1215.43 1239.64,-1207.86 1233.45,-1200 1227.65,-1192.65 1222.45,-1183.88 1218.19,-1175.75"/>
<polygon fill="black" stroke="black" points="1221.23,-1174.02 1213.64,-1166.63 1214.97,-1177.14 1221.23,-1174.02"/>
<text text-anchor="middle" x="1271.45" y="-1188.8" font-family="Times,serif" font-size="14.00">Axiom 237</text>
</g>
<!-- 977 -->
<g id="node6" class="node">
<title>977</title>
<ellipse fill="none" stroke="black" cx="1355.45" cy="-1149" rx="28.7" ry="18"/>
<text text-anchor="middle" x="1355.45" y="-1145.3" font-family="Times,serif" font-size="14.00">977</text>
</g>
<!-- 975&#45;&gt;977 -->
<g id="edge6" class="edge">
<title>975&#45;&gt;977</title>
<path fill="none" stroke="black" d="M1288.16,-1220.59C1294.83,-1214.36 1302.62,-1206.93 1309.45,-1200 1318.07,-1191.26 1327.29,-1181.35 1335.19,-1172.68"/>
<polygon fill="black" stroke="black" points="1337.91,-1174.89 1342.03,-1165.13 1332.72,-1170.2 1337.91,-1174.89"/>
<text text-anchor="middle" x="1362.45" y="-1188.8" font-family="Times,serif" font-size="14.00">Axiom 238</text>
</g>
<!-- 1482 -->
<g id="node8" class="node">
<title>1482</title>
<ellipse fill="none" stroke="black" cx="1160.45" cy="-1062" rx="34.39" ry="18"/>
<text text-anchor="middle" x="1160.45" y="-1058.3" font-family="Times,serif" font-size="14.00">1482</text>
</g>
<!-- 976&#45;&gt;1482 -->
<g id="edge7" class="edge">
<title>976&#45;&gt;1482</title>
<path fill="none" stroke="black" stroke-dasharray="1,5" d="M1197.58,-1131.61C1191,-1119.46 1181.91,-1102.66 1174.37,-1088.73"/>
<polygon fill="black" stroke="black" points="1177.28,-1086.76 1169.45,-1079.63 1171.13,-1090.09 1177.28,-1086.76"/>
<text text-anchor="middle" x="1258.95" y="-1101.8" font-family="Times,serif" font-size="14.00">(478 nodes omitted)</text>
</g>
<!-- 12069 -->
<g id="node57" class="node">
<title>12069</title>
<ellipse fill="none" stroke="black" cx="1391.45" cy="-1062" rx="40.09" ry="18"/>
<text text-anchor="middle" x="1391.45" y="-1058.3" font-family="Times,serif" font-size="14.00">12069</text>
</g>
<!-- 977&#45;&gt;12069 -->
<g id="edge8" class="edge">
<title>977&#45;&gt;12069</title>
<path fill="none" stroke="black" stroke-dasharray="1,5" d="M1362.56,-1131.21C1367.64,-1119.22 1374.57,-1102.85 1380.37,-1089.16"/>
<polygon fill="black" stroke="black" points="1383.67,-1090.33 1384.35,-1079.76 1377.23,-1087.6 1383.67,-1090.33"/>
<text text-anchor="middle" x="1453.45" y="-1101.8" font-family="Times,serif" font-size="14.00">(1275 nodes omitted)</text>
</g>
<!-- 1483 -->
<g id="node9" class="node">
<title>1483</title>
<ellipse fill="none" stroke="black" cx="1010.45" cy="-975" rx="34.39" ry="18"/>
<text text-anchor="middle" x="1010.45" y="-971.3" font-family="Times,serif" font-size="14.00">1483</text>
</g>
<!-- 1482&#45;&gt;1483 -->
<g id="edge9" class="edge">
<title>1482&#45;&gt;1483</title>
<path fill="none" stroke="black" d="M1133.1,-1050.68C1117.32,-1044.33 1097.32,-1035.58 1080.45,-1026 1065.36,-1017.43 1049.55,-1006.34 1036.78,-996.79"/>
<polygon fill="black" stroke="black" points="1038.54,-993.73 1028.47,-990.46 1034.31,-999.3 1038.54,-993.73"/>
<text text-anchor="middle" x="1118.45" y="-1014.8" font-family="Times,serif" font-size="14.00">Axiom 237</text>
</g>
<!-- 1484 -->
<g id="node10" class="node">
<title>1484</title>
<ellipse fill="none" stroke="black" cx="1160.45" cy="-975" rx="34.39" ry="18"/>
<text text-anchor="middle" x="1160.45" y="-971.3" font-family="Times,serif" font-size="14.00">1484</text>
</g>
<!-- 1482&#45;&gt;1484 -->
<g id="edge10" class="edge">
<title>1482&#45;&gt;1484</title>
<path fill="none" stroke="black" d="M1160.45,-1043.8C1160.45,-1032.16 1160.45,-1016.55 1160.45,-1003.24"/>
<polygon fill="black" stroke="black" points="1163.95,-1003.18 1160.45,-993.18 1156.95,-1003.18 1163.95,-1003.18"/>
<text text-anchor="middle" x="1198.45" y="-1014.8" font-family="Times,serif" font-size="14.00">Axiom 238</text>
</g>
<!-- 1963 -->
<g id="node11" class="node">
<title>1963</title>
<ellipse fill="none" stroke="black" cx="880.45" cy="-888" rx="34.39" ry="18"/>
<text text-anchor="middle" x="880.45" y="-884.3" font-family="Times,serif" font-size="14.00">1963</text>
</g>
<!-- 1483&#45;&gt;1963 -->
<g id="edge11" class="edge">
<title>1483&#45;&gt;1963</title>
<path fill="none" stroke="black" stroke-dasharray="1,5" d="M989.85,-960.53C968.3,-946.44 934.27,-924.19 909.89,-908.25"/>
<polygon fill="black" stroke="black" points="911.67,-905.23 901.38,-902.69 907.83,-911.09 911.67,-905.23"/>
<text text-anchor="middle" x="1025.95" y="-927.8" font-family="Times,serif" font-size="14.00">(478 nodes omitted)</text>
</g>
<!-- 11343 -->
<g id="node48" class="node">
<title>11343</title>
<ellipse fill="none" stroke="black" cx="1160.45" cy="-888" rx="40.09" ry="18"/>
<text text-anchor="middle" x="1160.45" y="-884.3" font-family="Times,serif" font-size="14.00">11343</text>
</g>
<!-- 1484&#45;&gt;11343 -->
<g id="edge12" class="edge">
<title>1484&#45;&gt;11343</title>
<path fill="none" stroke="black" stroke-dasharray="1,5" d="M1160.45,-956.8C1160.45,-945.16 1160.45,-929.55 1160.45,-916.24"/>
<polygon fill="black" stroke="black" points="1163.95,-916.18 1160.45,-906.18 1156.95,-916.18 1163.95,-916.18"/>
<text text-anchor="middle" x="1237.45" y="-927.8" font-family="Times,serif" font-size="14.00">(1275 nodes omitted)</text>
</g>
<!-- 1964 -->
<g id="node12" class="node">
<title>1964</title>
<ellipse fill="none" stroke="black" cx="700.45" cy="-801" rx="34.39" ry="18"/>
<text text-anchor="middle" x="700.45" y="-797.3" font-family="Times,serif" font-size="14.00">1964</text>
</g>
<!-- 1963&#45;&gt;1964 -->
<g id="edge13" class="edge">
<title>1963&#45;&gt;1964</title>
<path fill="none" stroke="black" d="M854.35,-875.99C838.65,-869.25 818.29,-860.36 800.45,-852 777.79,-841.39 752.59,-828.78 733.16,-818.89"/>
<polygon fill="black" stroke="black" points="734.62,-815.7 724.12,-814.27 731.43,-821.93 734.62,-815.7"/>
<text text-anchor="middle" x="838.45" y="-840.8" font-family="Times,serif" font-size="14.00">Axiom 237</text>
</g>
<!-- 1965 -->
<g id="node13" class="node">
<title>1965</title>
<ellipse fill="none" stroke="black" cx="880.45" cy="-801" rx="34.39" ry="18"/>
<text text-anchor="middle" x="880.45" y="-797.3" font-family="Times,serif" font-size="14.00">1965</text>
</g>
<!-- 1963&#45;&gt;1965 -->
<g id="edge14" class="edge">
<title>1963&#45;&gt;1965</title>
<path fill="none" stroke="black" d="M880.45,-869.8C880.45,-858.16 880.45,-842.55 880.45,-829.24"/>
<polygon fill="black" stroke="black" points="883.95,-829.18 880.45,-819.18 876.95,-829.18 883.95,-829.18"/>
<text text-anchor="middle" x="918.45" y="-840.8" font-family="Times,serif" font-size="14.00">Axiom 238</text>
</g>
<!-- 3976 -->
<g id="node14" class="node">
<title>3976</title>
<ellipse fill="none" stroke="black" cx="598.45" cy="-714" rx="34.39" ry="18"/>
<text text-anchor="middle" x="598.45" y="-710.3" font-family="Times,serif" font-size="14.00">3976</text>
</g>
<!-- 1964&#45;&gt;3976 -->
<g id="edge15" class="edge">
<title>1964&#45;&gt;3976</title>
<path fill="none" stroke="black" stroke-dasharray="1,5" d="M682.68,-785.19C666.44,-771.66 642.25,-751.5 623.95,-736.26"/>
<polygon fill="black" stroke="black" points="625.93,-733.35 616.01,-729.64 621.45,-738.73 625.93,-733.35"/>
<text text-anchor="middle" x="728.95" y="-753.8" font-family="Times,serif" font-size="14.00">(478 nodes omitted)</text>
</g>
<!-- 10137 -->
<g id="node39" class="node">
<title>10137</title>
<ellipse fill="none" stroke="black" cx="880.45" cy="-714" rx="40.09" ry="18"/>
<text text-anchor="middle" x="880.45" y="-710.3" font-family="Times,serif" font-size="14.00">10137</text>
</g>
<!-- 1965&#45;&gt;10137 -->
<g id="edge16" class="edge">
<title>1965&#45;&gt;10137</title>
<path fill="none" stroke="black" stroke-dasharray="1,5" d="M880.45,-782.8C880.45,-771.16 880.45,-755.55 880.45,-742.24"/>
<polygon fill="black" stroke="black" points="883.95,-742.18 880.45,-732.18 876.95,-742.18 883.95,-742.18"/>
<text text-anchor="middle" x="957.45" y="-753.8" font-family="Times,serif" font-size="14.00">(1275 nodes omitted)</text>
</g>
<!-- 3977 -->
<g id="node15" class="node">
<title>3977</title>
<ellipse fill="none" stroke="black" cx="444.45" cy="-627" rx="34.39" ry="18"/>
<text text-anchor="middle" x="444.45" y="-623.3" font-family="Times,serif" font-size="14.00">3977</text>
</g>
<!-- 3976&#45;&gt;3977 -->
<g id="edge17" class="edge">
<title>3976&#45;&gt;3977</title>
<path fill="none" stroke="black" d="M571.56,-702.67C555.76,-696.25 535.58,-687.43 518.45,-678 502.4,-669.17 485.41,-657.84 471.76,-648.2"/>
<polygon fill="black" stroke="black" points="473.48,-645.13 463.31,-642.15 469.41,-650.82 473.48,-645.13"/>
<text text-anchor="middle" x="556.45" y="-666.8" font-family="Times,serif" font-size="14.00">Axiom 237</text>
</g>
<!-- 3978 -->
<g id="node16" class="node">
<title>3978</title>
<ellipse fill="none" stroke="black" cx="598.45" cy="-627" rx="34.39" ry="18"/>
<text text-anchor="middle" x="598.45" y="-623.3" font-family="Times,serif" font-size="14.00">3978</text>
</g>
<!-- 3976&#45;&gt;3978 -->
<g id="edge18" class="edge">
<title>3976&#45;&gt;3978</title>
<path fill="none" stroke="black" d="M598.45,-695.8C598.45,-684.16 598.45,-668.55 598.45,-655.24"/>
<polygon fill="black" stroke="black" points="601.95,-655.18 598.45,-645.18 594.95,-655.18 601.95,-655.18"/>
<text text-anchor="middle" x="636.45" y="-666.8" font-family="Times,serif" font-size="14.00">Axiom 238</text>
</g>
<!-- 4457 -->
<g id="node17" class="node">
<title>4457</title>
<ellipse fill="none" stroke="black" cx="373.45" cy="-540" rx="34.39" ry="18"/>
<text text-anchor="middle" x="373.45" y="-536.3" font-family="Times,serif" font-size="14.00">4457</text>
</g>
<!-- 3977&#45;&gt;4457 -->
<g id="edge19" class="edge">
<title>3977&#45;&gt;4457</title>
<path fill="none" stroke="black" stroke-dasharray="1,5" d="M431.09,-610.01C420.48,-597.31 405.48,-579.34 393.43,-564.93"/>
<polygon fill="black" stroke="black" points="395.84,-562.35 386.74,-556.92 390.47,-566.83 395.84,-562.35"/>
<text text-anchor="middle" x="485.95" y="-579.8" font-family="Times,serif" font-size="14.00">(478 nodes omitted)</text>
</g>
<!-- 8613 -->
<g id="node30" class="node">
<title>8613</title>
<ellipse fill="none" stroke="black" cx="598.45" cy="-540" rx="34.39" ry="18"/>
<text text-anchor="middle" x="598.45" y="-536.3" font-family="Times,serif" font-size="14.00">8613</text>
</g>
<!-- 3978&#45;&gt;8613 -->
<g id="edge20" class="edge">
<title>3978&#45;&gt;8613</title>
<path fill="none" stroke="black" stroke-dasharray="1,5" d="M598.45,-608.8C598.45,-597.16 598.45,-581.55 598.45,-568.24"/>
<polygon fill="black" stroke="black" points="601.95,-568.18 598.45,-558.18 594.95,-568.18 601.95,-568.18"/>
<text text-anchor="middle" x="675.45" y="-579.8" font-family="Times,serif" font-size="14.00">(1275 nodes omitted)</text>
</g>
<!-- 4458 -->
<g id="node18" class="node">
<title>4458</title>
<ellipse fill="none" stroke="black" cx="223.45" cy="-453" rx="34.39" ry="18"/>
<text text-anchor="middle" x="223.45" y="-449.3" font-family="Times,serif" font-size="14.00">4458</text>
</g>
<!-- 4457&#45;&gt;4458 -->
<g id="edge21" class="edge">
<title>4457&#45;&gt;4458</title>
<path fill="none" stroke="black" d="M346.1,-528.68C330.32,-522.33 310.32,-513.58 293.45,-504 278.36,-495.43 262.55,-484.34 249.78,-474.79"/>
<polygon fill="black" stroke="black" points="251.54,-471.73 241.47,-468.46 247.31,-477.3 251.54,-471.73"/>
<text text-anchor="middle" x="331.45" y="-492.8" font-family="Times,serif" font-size="14.00">Axiom 237</text>
</g>
<!-- 4459 -->
<g id="node19" class="node">
<title>4459</title>
<ellipse fill="none" stroke="black" cx="373.45" cy="-453" rx="34.39" ry="18"/>
<text text-anchor="middle" x="373.45" y="-449.3" font-family="Times,serif" font-size="14.00">4459</text>
</g>
<!-- 4457&#45;&gt;4459 -->
<g id="edge22" class="edge">
<title>4457&#45;&gt;4459</title>
<path fill="none" stroke="black" d="M373.45,-521.8C373.45,-510.16 373.45,-494.55 373.45,-481.24"/>
<polygon fill="black" stroke="black" points="376.95,-481.18 373.45,-471.18 369.95,-481.18 376.95,-481.18"/>
<text text-anchor="middle" x="411.45" y="-492.8" font-family="Times,serif" font-size="14.00">Axiom 238</text>
</g>
<!-- 4938 -->
<g id="node20" class="node">
<title>4938</title>
<ellipse fill="none" stroke="black" cx="205.45" cy="-366" rx="34.39" ry="18"/>
<text text-anchor="middle" x="205.45" y="-362.3" font-family="Times,serif" font-size="14.00">4938</text>
</g>
<!-- 4458&#45;&gt;4938 -->
<g id="edge23" class="edge">
<title>4458&#45;&gt;4938</title>
<path fill="none" stroke="black" stroke-dasharray="1,5" d="M219.8,-434.8C217.34,-423.16 214.03,-407.55 211.21,-394.24"/>
<polygon fill="black" stroke="black" points="214.58,-393.23 209.08,-384.18 207.73,-394.68 214.58,-393.23"/>
<text text-anchor="middle" x="288.95" y="-405.8" font-family="Times,serif" font-size="14.00">(478 nodes omitted)</text>
</g>
<!-- 7337 -->
<g id="node29" class="node">
<title>7337</title>
<ellipse fill="none" stroke="black" cx="373.45" cy="-366" rx="34.39" ry="18"/>
<text text-anchor="middle" x="373.45" y="-362.3" font-family="Times,serif" font-size="14.00">7337</text>
</g>
<!-- 4459&#45;&gt;7337 -->
<g id="edge24" class="edge">
<title>4459&#45;&gt;7337</title>
<path fill="none" stroke="black" stroke-dasharray="1,5" d="M373.45,-434.8C373.45,-423.16 373.45,-407.55 373.45,-394.24"/>
<polygon fill="black" stroke="black" points="376.95,-394.18 373.45,-384.18 369.95,-394.18 376.95,-394.18"/>
<text text-anchor="middle" x="450.45" y="-405.8" font-family="Times,serif" font-size="14.00">(1078 nodes omitted)</text>
</g>
<!-- 4939 -->
<g id="node21" class="node">
<title>4939</title>
<ellipse fill="none" stroke="black" cx="168.45" cy="-279" rx="34.39" ry="18"/>
<text text-anchor="middle" x="168.45" y="-275.3" font-family="Times,serif" font-size="14.00">4939</text>
</g>
<!-- 4938&#45;&gt;4939 -->
<g id="edge25" class="edge">
<title>4938&#45;&gt;4939</title>
<path fill="none" stroke="black" d="M193.97,-348.78C190.26,-343.03 186.36,-336.4 183.45,-330 180.15,-322.74 177.35,-314.56 175.09,-306.96"/>
<polygon fill="black" stroke="black" points="178.39,-305.78 172.35,-297.08 171.65,-307.65 178.39,-305.78"/>
<text text-anchor="middle" x="221.45" y="-318.8" font-family="Times,serif" font-size="14.00">Axiom 237</text>
</g>
<!-- 4940 -->
<g id="node22" class="node">
<title>4940</title>
<ellipse fill="none" stroke="black" cx="285.45" cy="-279" rx="34.39" ry="18"/>
<text text-anchor="middle" x="285.45" y="-275.3" font-family="Times,serif" font-size="14.00">4940</text>
</g>
<!-- 4938&#45;&gt;4940 -->
<g id="edge26" class="edge">
<title>4938&#45;&gt;4940</title>
<path fill="none" stroke="black" d="M229.5,-353.03C239.64,-347.12 251.03,-339.26 259.45,-330 265.69,-323.13 270.88,-314.48 274.93,-306.32"/>
<polygon fill="black" stroke="black" points="278.18,-307.65 279.17,-297.1 271.81,-304.73 278.18,-307.65"/>
<text text-anchor="middle" x="308.45" y="-318.8" font-family="Times,serif" font-size="14.00">Axiom 238</text>
</g>
<!-- 5419 -->
<g id="node23" class="node">
<title>5419</title>
<ellipse fill="none" stroke="black" cx="134.45" cy="-192" rx="34.39" ry="18"/>
<text text-anchor="middle" x="134.45" y="-188.3" font-family="Times,serif" font-size="14.00">5419</text>
</g>
<!-- 4939&#45;&gt;5419 -->
<g id="edge27" class="edge">
<title>4939&#45;&gt;5419</title>
<path fill="none" stroke="black" stroke-dasharray="1,5" d="M155.51,-262.06C151.43,-256.34 147.25,-249.65 144.45,-243 141.42,-235.82 139.29,-227.67 137.8,-220.06"/>
<polygon fill="black" stroke="black" points="141.25,-219.45 136.14,-210.17 134.35,-220.61 141.25,-219.45"/>
<text text-anchor="middle" x="216.95" y="-231.8" font-family="Times,serif" font-size="14.00">(478 nodes omitted)</text>
</g>
<!-- 6258 -->
<g id="node28" class="node">
<title>6258</title>
<ellipse fill="none" stroke="black" cx="302.45" cy="-192" rx="34.39" ry="18"/>
<text text-anchor="middle" x="302.45" y="-188.3" font-family="Times,serif" font-size="14.00">6258</text>
</g>
<!-- 4940&#45;&gt;6258 -->
<g id="edge28" class="edge">
<title>4940&#45;&gt;6258</title>
<path fill="none" stroke="black" stroke-dasharray="1,5" d="M288.89,-260.8C291.21,-249.16 294.34,-233.55 297,-220.24"/>
<polygon fill="black" stroke="black" points="300.48,-220.67 299.01,-210.18 293.62,-219.29 300.48,-220.67"/>
<text text-anchor="middle" x="367.95" y="-231.8" font-family="Times,serif" font-size="14.00">(598 nodes omitted)</text>
</g>
<!-- 5420 -->
<g id="node24" class="node">
<title>5420</title>
<ellipse fill="none" stroke="black" cx="68.45" cy="-105" rx="34.39" ry="18"/>
<text text-anchor="middle" x="68.45" y="-101.3" font-family="Times,serif" font-size="14.00">5420</text>
</g>
<!-- 5419&#45;&gt;5420 -->
<g id="edge29" class="edge">
<title>5419&#45;&gt;5420</title>
<path fill="none" stroke="black" d="M111.26,-178.68C102.14,-172.85 92.24,-165.15 85.45,-156 80.37,-149.17 76.74,-140.72 74.18,-132.72"/>
<polygon fill="black" stroke="black" points="77.52,-131.69 71.47,-122.99 70.78,-133.56 77.52,-131.69"/>
<text text-anchor="middle" x="123.45" y="-144.8" font-family="Times,serif" font-size="14.00">Axiom 237</text>
</g>
<!-- 5421 -->
<g id="node25" class="node">
<title>5421</title>
<ellipse fill="none" stroke="black" cx="197.45" cy="-105" rx="34.39" ry="18"/>
<text text-anchor="middle" x="197.45" y="-101.3" font-family="Times,serif" font-size="14.00">5421</text>
</g>
<!-- 5419&#45;&gt;5421 -->
<g id="edge30" class="edge">
<title>5419&#45;&gt;5421</title>
<path fill="none" stroke="black" d="M149.19,-175.41C154.52,-169.5 160.46,-162.61 165.45,-156 171.32,-148.23 177.21,-139.39 182.31,-131.32"/>
<polygon fill="black" stroke="black" points="185.4,-132.99 187.69,-122.65 179.45,-129.3 185.4,-132.99"/>
<text text-anchor="middle" x="214.45" y="-144.8" font-family="Times,serif" font-size="14.00">Axiom 238</text>
</g>
<!-- 5540 -->
<g id="node26" class="node">
<title>5540</title>
<ellipse fill="none" stroke="black" cx="34.45" cy="-18" rx="34.39" ry="18"/>
<text text-anchor="middle" x="34.45" y="-14.3" font-family="Times,serif" font-size="14.00">5540</text>
</g>
<!-- 5420&#45;&gt;5540 -->
<g id="edge31" class="edge">
<title>5420&#45;&gt;5540</title>
<path fill="none" stroke="black" stroke-dasharray="1,5" d="M59.89,-87.46C57.04,-81.69 53.96,-75.12 51.45,-69 48.35,-61.45 45.35,-53.11 42.75,-45.44"/>
<polygon fill="black" stroke="black" points="46.05,-44.26 39.6,-35.86 39.4,-46.45 46.05,-44.26"/>
<text text-anchor="middle" x="123.95" y="-57.8" font-family="Times,serif" font-size="14.00">(118 nodes omitted)</text>
</g>
<!-- 5659 -->
<g id="node27" class="node">
<title>5659</title>
<ellipse fill="none" stroke="black" cx="202.45" cy="-18" rx="34.39" ry="18"/>
<text text-anchor="middle" x="202.45" y="-14.3" font-family="Times,serif" font-size="14.00">5659</text>
</g>
<!-- 5421&#45;&gt;5659 -->
<g id="edge32" class="edge">
<title>5421&#45;&gt;5659</title>
<path fill="none" stroke="black" stroke-dasharray="1,5" d="M198.46,-86.8C199.14,-75.16 200.06,-59.55 200.84,-46.24"/>
<polygon fill="black" stroke="black" points="204.34,-46.36 201.44,-36.18 197.36,-45.95 204.34,-46.36"/>
<text text-anchor="middle" x="272.95" y="-57.8" font-family="Times,serif" font-size="14.00">(118 nodes omitted)</text>
</g>
<!-- 8614 -->
<g id="node31" class="node">
<title>8614</title>
<ellipse fill="none" stroke="black" cx="559.45" cy="-453" rx="34.39" ry="18"/>
<text text-anchor="middle" x="559.45" y="-449.3" font-family="Times,serif" font-size="14.00">8614</text>
</g>
<!-- 8613&#45;&gt;8614 -->
<g id="edge33" class="edge">
<title>8613&#45;&gt;8614</title>
<path fill="none" stroke="black" d="M590.74,-522.21C585.24,-510.22 577.73,-493.85 571.45,-480.16"/>
<polygon fill="black" stroke="black" points="574.49,-478.39 567.14,-470.76 568.13,-481.31 574.49,-478.39"/>
<text text-anchor="middle" x="619.45" y="-492.8" font-family="Times,serif" font-size="14.00">Axiom 326</text>
</g>
<!-- 8615 -->
<g id="node32" class="node">
<title>8615</title>
<ellipse fill="none" stroke="black" cx="684.45" cy="-453" rx="34.39" ry="18"/>
<text text-anchor="middle" x="684.45" y="-449.3" font-family="Times,serif" font-size="14.00">8615</text>
</g>
<!-- 8613&#45;&gt;8615 -->
<g id="edge34" class="edge">
<title>8613&#45;&gt;8615</title>
<path fill="none" stroke="black" d="M624.3,-527.98C635.8,-522.12 648.88,-514.04 658.45,-504 664.95,-497.18 670.24,-488.41 674.31,-480.13"/>
<polygon fill="black" stroke="black" points="677.6,-481.33 678.52,-470.78 671.22,-478.45 677.6,-481.33"/>
<text text-anchor="middle" x="707.95" y="-492.8" font-family="Times,serif" font-size="14.00">Remaining</text>
</g>
<!-- 8793 -->
<g id="node33" class="node">
<title>8793</title>
<ellipse fill="none" stroke="black" cx="550.45" cy="-366" rx="34.39" ry="18"/>
<text text-anchor="middle" x="550.45" y="-362.3" font-family="Times,serif" font-size="14.00">8793</text>
</g>
<!-- 8614&#45;&gt;8793 -->
<g id="edge35" class="edge">
<title>8614&#45;&gt;8793</title>
<path fill="none" stroke="black" stroke-dasharray="1,5" d="M554.83,-435.03C553.48,-429.35 552.18,-422.94 551.45,-417 550.55,-409.7 550.14,-401.77 549.99,-394.41"/>
<polygon fill="black" stroke="black" points="553.48,-394.17 549.93,-384.19 546.48,-394.21 553.48,-394.17"/>
<text text-anchor="middle" x="623.95" y="-405.8" font-family="Times,serif" font-size="14.00">(177 nodes omitted)</text>
</g>
<!-- 8900 -->
<g id="node38" class="node">
<title>8900</title>
<ellipse fill="none" stroke="#00c800" cx="718.45" cy="-366" rx="34.39" ry="18"/>
<text text-anchor="middle" x="718.45" y="-362.3" font-family="Times,serif" font-size="14.00">8900</text>
</g>
<!-- 8615&#45;&gt;8900 -->
<g id="edge36" class="edge">
<title>8615&#45;&gt;8900</title>
<path fill="none" stroke="black" d="M691.16,-435.21C695.96,-423.22 702.51,-406.85 707.98,-393.16"/>
<polygon fill="black" stroke="black" points="711.28,-394.34 711.74,-383.76 704.78,-391.74 711.28,-394.34"/>
<text text-anchor="middle" x="766.45" y="-405.8" font-family="Times,serif" font-size="14.00">CheckImplication</text>
</g>
<!-- 8794 -->
<g id="node34" class="node">
<title>8794</title>
<ellipse fill="none" stroke="black" cx="519.45" cy="-279" rx="34.39" ry="18"/>
<text text-anchor="middle" x="519.45" y="-275.3" font-family="Times,serif" font-size="14.00">8794</text>
</g>
<!-- 8793&#45;&gt;8794 -->
<g id="edge37" class="edge">
<title>8793&#45;&gt;8794</title>
<path fill="none" stroke="black" d="M544.32,-348.21C539.95,-336.22 533.98,-319.85 528.99,-306.16"/>
<polygon fill="black" stroke="black" points="532.27,-304.95 525.56,-296.76 525.7,-307.35 532.27,-304.95"/>
<text text-anchor="middle" x="575.45" y="-318.8" font-family="Times,serif" font-size="14.00">Axiom 326</text>
</g>
<!-- 8795 -->
<g id="node35" class="node">
<title>8795</title>
<ellipse fill="none" stroke="black" cx="673.45" cy="-279" rx="34.39" ry="18"/>
<text text-anchor="middle" x="673.45" y="-275.3" font-family="Times,serif" font-size="14.00">8795</text>
</g>
<!-- 8793&#45;&gt;8795 -->
<g id="edge38" class="edge">
<title>8793&#45;&gt;8795</title>
<path fill="none" stroke="black" d="M575.8,-353.6C588.71,-347.35 604.39,-339.03 617.45,-330 629.12,-321.93 640.99,-311.67 650.79,-302.56"/>
<polygon fill="black" stroke="black" points="653.32,-304.98 658.15,-295.55 648.49,-299.91 653.32,-304.98"/>
<text text-anchor="middle" x="673.95" y="-318.8" font-family="Times,serif" font-size="14.00">Remaining</text>
</g>
<!-- 8898 -->
<g id="node36" class="node">
<title>8898</title>
<ellipse fill="none" stroke="black" cx="510.45" cy="-192" rx="34.39" ry="18"/>
<text text-anchor="middle" x="510.45" y="-188.3" font-family="Times,serif" font-size="14.00">8898</text>
</g>
<!-- 8794&#45;&gt;8898 -->
<g id="edge39" class="edge">
<title>8794&#45;&gt;8898</title>
<path fill="none" stroke="black" stroke-dasharray="1,5" d="M517.63,-260.8C516.39,-249.16 514.74,-233.55 513.33,-220.24"/>
<polygon fill="black" stroke="black" points="516.8,-219.75 512.27,-210.18 509.84,-220.49 516.8,-219.75"/>
<text text-anchor="middle" x="588.95" y="-231.8" font-family="Times,serif" font-size="14.00">(102 nodes omitted)</text>
</g>
<!-- 8899 -->
<g id="node37" class="node">
<title>8899</title>
<ellipse fill="none" stroke="#00c800" cx="678.45" cy="-192" rx="34.39" ry="18"/>
<text text-anchor="middle" x="678.45" y="-188.3" font-family="Times,serif" font-size="14.00">8899</text>
</g>
<!-- 8795&#45;&gt;8899 -->
<g id="edge40" class="edge">
<title>8795&#45;&gt;8899</title>
<path fill="none" stroke="black" d="M674.46,-260.8C675.14,-249.16 676.06,-233.55 676.84,-220.24"/>
<polygon fill="black" stroke="black" points="680.34,-220.36 677.44,-210.18 673.36,-219.95 680.34,-220.36"/>
<text text-anchor="middle" x="738.45" y="-231.8" font-family="Times,serif" font-size="14.00">CheckImplication</text>
</g>
<!-- 10138 -->
<g id="node40" class="node">
<title>10138</title>
<ellipse fill="none" stroke="black" cx="839.45" cy="-627" rx="40.09" ry="18"/>
<text text-anchor="middle" x="839.45" y="-623.3" font-family="Times,serif" font-size="14.00">10138</text>
</g>
<!-- 10137&#45;&gt;10138 -->
<g id="edge41" class="edge">
<title>10137&#45;&gt;10138</title>
<path fill="none" stroke="black" d="M863.64,-697.6C858.36,-691.92 852.99,-685.12 849.45,-678 845.98,-671.02 843.72,-662.94 842.24,-655.32"/>
<polygon fill="black" stroke="black" points="845.68,-654.72 840.67,-645.39 838.77,-655.81 845.68,-654.72"/>
<text text-anchor="middle" x="887.45" y="-666.8" font-family="Times,serif" font-size="14.00">Axiom 326</text>
</g>
<!-- 10139 -->
<g id="node41" class="node">
<title>10139</title>
<ellipse fill="none" stroke="black" cx="964.45" cy="-627" rx="40.09" ry="18"/>
<text text-anchor="middle" x="964.45" y="-623.3" font-family="Times,serif" font-size="14.00">10139</text>
</g>
<!-- 10137&#45;&gt;10139 -->
<g id="edge42" class="edge">
<title>10137&#45;&gt;10139</title>
<path fill="none" stroke="black" d="M901.5,-698.33C909.37,-692.41 918.16,-685.27 925.45,-678 933.16,-670.3 940.74,-661.08 947.14,-652.66"/>
<polygon fill="black" stroke="black" points="949.96,-654.72 953.1,-644.6 944.34,-650.56 949.96,-654.72"/>
<text text-anchor="middle" x="976.95" y="-666.8" font-family="Times,serif" font-size="14.00">Remaining</text>
</g>
<!-- 10317 -->
<g id="node42" class="node">
<title>10317</title>
<ellipse fill="none" stroke="black" cx="865.45" cy="-540" rx="40.09" ry="18"/>
<text text-anchor="middle" x="865.45" y="-536.3" font-family="Times,serif" font-size="14.00">10317</text>
</g>
<!-- 10138&#45;&gt;10317 -->
<g id="edge43" class="edge">
<title>10138&#45;&gt;10317</title>
<path fill="none" stroke="black" stroke-dasharray="1,5" d="M832.27,-608.82C829.22,-598.93 827.22,-586.43 831.45,-576 833.21,-571.64 835.81,-567.53 838.8,-563.76"/>
<polygon fill="black" stroke="black" points="841.64,-565.84 845.79,-556.09 836.47,-561.13 841.64,-565.84"/>
<text text-anchor="middle" x="903.95" y="-579.8" font-family="Times,serif" font-size="14.00">(177 nodes omitted)</text>
</g>
<!-- 10586 -->
<g id="node47" class="node">
<title>10586</title>
<ellipse fill="none" stroke="#00c800" cx="998.45" cy="-540" rx="40.09" ry="18"/>
<text text-anchor="middle" x="998.45" y="-536.3" font-family="Times,serif" font-size="14.00">10586</text>
</g>
<!-- 10139&#45;&gt;10586 -->
<g id="edge44" class="edge">
<title>10139&#45;&gt;10586</title>
<path fill="none" stroke="black" d="M971.16,-609.21C975.96,-597.22 982.51,-580.85 987.98,-567.16"/>
<polygon fill="black" stroke="black" points="991.28,-568.34 991.74,-557.76 984.78,-565.74 991.28,-568.34"/>
<text text-anchor="middle" x="1046.45" y="-579.8" font-family="Times,serif" font-size="14.00">CheckImplication</text>
</g>
<!-- 10318 -->
<g id="node43" class="node">
<title>10318</title>
<ellipse fill="none" stroke="black" cx="865.45" cy="-453" rx="40.09" ry="18"/>
<text text-anchor="middle" x="865.45" y="-449.3" font-family="Times,serif" font-size="14.00">10318</text>
</g>
<!-- 10317&#45;&gt;10318 -->
<g id="edge45" class="edge">
<title>10317&#45;&gt;10318</title>
<path fill="none" stroke="black" d="M865.45,-521.8C865.45,-510.16 865.45,-494.55 865.45,-481.24"/>
<polygon fill="black" stroke="black" points="868.95,-481.18 865.45,-471.18 861.95,-481.18 868.95,-481.18"/>
<text text-anchor="middle" x="903.45" y="-492.8" font-family="Times,serif" font-size="14.00">Axiom 326</text>
</g>
<!-- 10319 -->
<g id="node44" class="node">
<title>10319</title>
<ellipse fill="none" stroke="black" cx="998.45" cy="-453" rx="40.09" ry="18"/>
<text text-anchor="middle" x="998.45" y="-449.3" font-family="Times,serif" font-size="14.00">10319</text>
</g>
<!-- 10317&#45;&gt;10319 -->
<g id="edge46" class="edge">
<title>10317&#45;&gt;10319</title>
<path fill="none" stroke="black" d="M896.35,-528.36C911.75,-522.35 930.27,-514.04 945.45,-504 956.82,-496.48 968.02,-486.42 977.16,-477.3"/>
<polygon fill="black" stroke="black" points="979.86,-479.55 984.33,-469.94 974.85,-474.67 979.86,-479.55"/>
<text text-anchor="middle" x="1002.95" y="-492.8" font-family="Times,serif" font-size="14.00">Remaining</text>
</g>
<!-- 10584 -->
<g id="node45" class="node">
<title>10584</title>
<ellipse fill="none" stroke="#c80000" cx="865.45" cy="-366" rx="40.09" ry="18"/>
<text text-anchor="middle" x="865.45" y="-362.3" font-family="Times,serif" font-size="14.00">10584</text>
</g>
<!-- 10318&#45;&gt;10584 -->
<g id="edge47" class="edge">
<title>10318&#45;&gt;10584</title>
<path fill="none" stroke="black" stroke-dasharray="1,5" d="M865.45,-434.8C865.45,-423.16 865.45,-407.55 865.45,-394.24"/>
<polygon fill="black" stroke="black" points="868.95,-394.18 865.45,-384.18 861.95,-394.18 868.95,-394.18"/>
<text text-anchor="middle" x="937.95" y="-405.8" font-family="Times,serif" font-size="14.00">(264 nodes omitted)</text>
</g>
<!-- 10585 -->
<g id="node46" class="node">
<title>10585</title>
<ellipse fill="none" stroke="#00c800" cx="1033.45" cy="-366" rx="40.09" ry="18"/>
<text text-anchor="middle" x="1033.45" y="-362.3" font-family="Times,serif" font-size="14.00">10585</text>
</g>
<!-- 10319&#45;&gt;10585 -->
<g id="edge48" class="edge">
<title>10319&#45;&gt;10585</title>
<path fill="none" stroke="black" d="M1005.36,-435.21C1010.3,-423.22 1017.04,-406.85 1022.68,-393.16"/>
<polygon fill="black" stroke="black" points="1025.98,-394.34 1026.55,-383.76 1019.5,-391.67 1025.98,-394.34"/>
<text text-anchor="middle" x="1080.45" y="-405.8" font-family="Times,serif" font-size="14.00">CheckImplication</text>
</g>
<!-- 11344 -->
<g id="node49" class="node">
<title>11344</title>
<ellipse fill="none" stroke="black" cx="1120.45" cy="-801" rx="40.09" ry="18"/>
<text text-anchor="middle" x="1120.45" y="-797.3" font-family="Times,serif" font-size="14.00">11344</text>
</g>
<!-- 11343&#45;&gt;11344 -->
<g id="edge49" class="edge">
<title>11343&#45;&gt;11344</title>
<path fill="none" stroke="black" d="M1144.19,-871.52C1139.08,-865.83 1133.88,-859.05 1130.45,-852 1127.04,-845 1124.79,-836.9 1123.31,-829.29"/>
<polygon fill="black" stroke="black" points="1126.76,-828.68 1121.73,-819.36 1119.84,-829.78 1126.76,-828.68"/>
<text text-anchor="middle" x="1168.45" y="-840.8" font-family="Times,serif" font-size="14.00">Axiom 326</text>
</g>
<!-- 11345 -->
<g id="node50" class="node">
<title>11345</title>
<ellipse fill="none" stroke="black" cx="1245.45" cy="-801" rx="40.09" ry="18"/>
<text text-anchor="middle" x="1245.45" y="-797.3" font-family="Times,serif" font-size="14.00">11345</text>
</g>
<!-- 11343&#45;&gt;11345 -->
<g id="edge50" class="edge">
<title>11343&#45;&gt;11345</title>
<path fill="none" stroke="black" d="M1181.99,-872.39C1190.04,-866.49 1199.02,-859.34 1206.45,-852 1214.2,-844.34 1221.79,-835.13 1228.18,-826.71"/>
<polygon fill="black" stroke="black" points="1231.01,-828.76 1234.14,-818.64 1225.38,-824.61 1231.01,-828.76"/>
<text text-anchor="middle" x="1257.95" y="-840.8" font-family="Times,serif" font-size="14.00">Remaining</text>
</g>
<!-- 11523 -->
<g id="node51" class="node">
<title>11523</title>
<ellipse fill="none" stroke="black" cx="1145.45" cy="-714" rx="40.09" ry="18"/>
<text text-anchor="middle" x="1145.45" y="-710.3" font-family="Times,serif" font-size="14.00">11523</text>
</g>
<!-- 11344&#45;&gt;11523 -->
<g id="edge51" class="edge">
<title>11344&#45;&gt;11523</title>
<path fill="none" stroke="black" stroke-dasharray="1,5" d="M1113.33,-782.84C1110.29,-772.96 1108.29,-760.46 1112.45,-750 1114.16,-745.69 1116.68,-741.61 1119.58,-737.85"/>
<polygon fill="black" stroke="black" points="1122.35,-740 1126.36,-730.19 1117.11,-735.36 1122.35,-740"/>
<text text-anchor="middle" x="1184.95" y="-753.8" font-family="Times,serif" font-size="14.00">(177 nodes omitted)</text>
</g>
<!-- 11792 -->
<g id="node56" class="node">
<title>11792</title>
<ellipse fill="none" stroke="#00c800" cx="1279.45" cy="-714" rx="40.09" ry="18"/>
<text text-anchor="middle" x="1279.45" y="-710.3" font-family="Times,serif" font-size="14.00">11792</text>
</g>
<!-- 11345&#45;&gt;11792 -->
<g id="edge52" class="edge">
<title>11345&#45;&gt;11792</title>
<path fill="none" stroke="black" d="M1252.16,-783.21C1256.96,-771.22 1263.51,-754.85 1268.98,-741.16"/>
<polygon fill="black" stroke="black" points="1272.28,-742.34 1272.74,-731.76 1265.78,-739.74 1272.28,-742.34"/>
<text text-anchor="middle" x="1327.45" y="-753.8" font-family="Times,serif" font-size="14.00">CheckImplication</text>
</g>
<!-- 11524 -->
<g id="node52" class="node">
<title>11524</title>
<ellipse fill="none" stroke="black" cx="1145.45" cy="-627" rx="40.09" ry="18"/>
<text text-anchor="middle" x="1145.45" y="-623.3" font-family="Times,serif" font-size="14.00">11524</text>
</g>
<!-- 11523&#45;&gt;11524 -->
<g id="edge53" class="edge">
<title>11523&#45;&gt;11524</title>
<path fill="none" stroke="black" d="M1145.45,-695.8C1145.45,-684.16 1145.45,-668.55 1145.45,-655.24"/>
<polygon fill="black" stroke="black" points="1148.95,-655.18 1145.45,-645.18 1141.95,-655.18 1148.95,-655.18"/>
<text text-anchor="middle" x="1183.45" y="-666.8" font-family="Times,serif" font-size="14.00">Axiom 326</text>
</g>
<!-- 11525 -->
<g id="node53" class="node">
<title>11525</title>
<ellipse fill="none" stroke="black" cx="1278.45" cy="-627" rx="40.09" ry="18"/>
<text text-anchor="middle" x="1278.45" y="-623.3" font-family="Times,serif" font-size="14.00">11525</text>
</g>
<!-- 11523&#45;&gt;11525 -->
<g id="edge54" class="edge">
<title>11523&#45;&gt;11525</title>
<path fill="none" stroke="black" d="M1175.42,-701.86C1190.14,-695.78 1207.81,-687.54 1222.45,-678 1234.34,-670.25 1246.24,-660.05 1256,-650.88"/>
<polygon fill="black" stroke="black" points="1258.56,-653.28 1263.33,-643.82 1253.7,-648.24 1258.56,-653.28"/>
<text text-anchor="middle" x="1280.95" y="-666.8" font-family="Times,serif" font-size="14.00">Remaining</text>
</g>
<!-- 11790 -->
<g id="node54" class="node">
<title>11790</title>
<ellipse fill="none" stroke="#c80000" cx="1145.45" cy="-540" rx="40.09" ry="18"/>
<text text-anchor="middle" x="1145.45" y="-536.3" font-family="Times,serif" font-size="14.00">11790</text>
</g>
<!-- 11524&#45;&gt;11790 -->
<g id="edge55" class="edge">
<title>11524&#45;&gt;11790</title>
<path fill="none" stroke="black" stroke-dasharray="1,5" d="M1145.45,-608.8C1145.45,-597.16 1145.45,-581.55 1145.45,-568.24"/>
<polygon fill="black" stroke="black" points="1148.95,-568.18 1145.45,-558.18 1141.95,-568.18 1148.95,-568.18"/>
<text text-anchor="middle" x="1217.95" y="-579.8" font-family="Times,serif" font-size="14.00">(264 nodes omitted)</text>
</g>
<!-- 11791 -->
<g id="node55" class="node">
<title>11791</title>
<ellipse fill="none" stroke="#00c800" cx="1313.45" cy="-540" rx="40.09" ry="18"/>
<text text-anchor="middle" x="1313.45" y="-536.3" font-family="Times,serif" font-size="14.00">11791</text>
</g>
<!-- 11525&#45;&gt;11791 -->
<g id="edge56" class="edge">
<title>11525&#45;&gt;11791</title>
<path fill="none" stroke="black" d="M1285.36,-609.21C1290.3,-597.22 1297.04,-580.85 1302.68,-567.16"/>
<polygon fill="black" stroke="black" points="1305.98,-568.34 1306.55,-557.76 1299.5,-565.67 1305.98,-568.34"/>
<text text-anchor="middle" x="1360.45" y="-579.8" font-family="Times,serif" font-size="14.00">CheckImplication</text>
</g>
<!-- 12070 -->
<g id="node58" class="node">
<title>12070</title>
<ellipse fill="none" stroke="black" cx="1391.45" cy="-975" rx="40.09" ry="18"/>
<text text-anchor="middle" x="1391.45" y="-971.3" font-family="Times,serif" font-size="14.00">12070</text>
</g>
<!-- 12069&#45;&gt;12070 -->
<g id="edge57" class="edge">
<title>12069&#45;&gt;12070</title>
<path fill="none" stroke="black" d="M1391.45,-1043.8C1391.45,-1032.16 1391.45,-1016.55 1391.45,-1003.24"/>
<polygon fill="black" stroke="black" points="1394.95,-1003.18 1391.45,-993.18 1387.95,-1003.18 1394.95,-1003.18"/>
<text text-anchor="middle" x="1429.45" y="-1014.8" font-family="Times,serif" font-size="14.00">Axiom 326</text>
</g>
<!-- 12071 -->
<g id="node59" class="node">
<title>12071</title>
<ellipse fill="none" stroke="black" cx="1524.45" cy="-975" rx="40.09" ry="18"/>
<text text-anchor="middle" x="1524.45" y="-971.3" font-family="Times,serif" font-size="14.00">12071</text>
</g>
<!-- 12069&#45;&gt;12071 -->
<g id="edge58" class="edge">
<title>12069&#45;&gt;12071</title>
<path fill="none" stroke="black" d="M1422.35,-1050.36C1437.75,-1044.35 1456.27,-1036.04 1471.45,-1026 1482.82,-1018.48 1494.02,-1008.42 1503.16,-999.3"/>
<polygon fill="black" stroke="black" points="1505.86,-1001.55 1510.33,-991.94 1500.85,-996.67 1505.86,-1001.55"/>
<text text-anchor="middle" x="1527.95" y="-1014.8" font-family="Times,serif" font-size="14.00">Remaining</text>
</g>
<!-- 12249 -->
<g id="node60" class="node">
<title>12249</title>
<ellipse fill="none" stroke="black" cx="1426.45" cy="-888" rx="40.09" ry="18"/>
<text text-anchor="middle" x="1426.45" y="-884.3" font-family="Times,serif" font-size="14.00">12249</text>
</g>
<!-- 12070&#45;&gt;12249 -->
<g id="edge59" class="edge">
<title>12070&#45;&gt;12249</title>
<path fill="none" stroke="black" stroke-dasharray="1,5" d="M1388.74,-956.69C1387.92,-946.76 1388.17,-934.26 1392.45,-924 1394.26,-919.66 1396.88,-915.56 1399.88,-911.79"/>
<polygon fill="black" stroke="black" points="1402.72,-913.88 1406.88,-904.13 1397.55,-909.16 1402.72,-913.88"/>
<text text-anchor="middle" x="1464.95" y="-927.8" font-family="Times,serif" font-size="14.00">(177 nodes omitted)</text>
</g>
<!-- 12518 -->
<g id="node65" class="node">
<title>12518</title>
<ellipse fill="none" stroke="#00c800" cx="1559.45" cy="-888" rx="40.09" ry="18"/>
<text text-anchor="middle" x="1559.45" y="-884.3" font-family="Times,serif" font-size="14.00">12518</text>
</g>
<!-- 12071&#45;&gt;12518 -->
<g id="edge60" class="edge">
<title>12071&#45;&gt;12518</title>
<path fill="none" stroke="black" d="M1531.36,-957.21C1536.3,-945.22 1543.04,-928.85 1548.68,-915.16"/>
<polygon fill="black" stroke="black" points="1551.98,-916.34 1552.55,-905.76 1545.5,-913.67 1551.98,-916.34"/>
<text text-anchor="middle" x="1605.45" y="-927.8" font-family="Times,serif" font-size="14.00">CheckImplication</text>
</g>
<!-- 12250 -->
<g id="node61" class="node">
<title>12250</title>
<ellipse fill="none" stroke="black" cx="1426.45" cy="-801" rx="40.09" ry="18"/>
<text text-anchor="middle" x="1426.45" y="-797.3" font-family="Times,serif" font-size="14.00">12250</text>
</g>
<!-- 12249&#45;&gt;12250 -->
<g id="edge61" class="edge">
<title>12249&#45;&gt;12250</title>
<path fill="none" stroke="black" d="M1426.45,-869.8C1426.45,-858.16 1426.45,-842.55 1426.45,-829.24"/>
<polygon fill="black" stroke="black" points="1429.95,-829.18 1426.45,-819.18 1422.95,-829.18 1429.95,-829.18"/>
<text text-anchor="middle" x="1464.45" y="-840.8" font-family="Times,serif" font-size="14.00">Axiom 326</text>
</g>
<!-- 12251 -->
<g id="node62" class="node">
<title>12251</title>
<ellipse fill="none" stroke="black" cx="1559.45" cy="-801" rx="40.09" ry="18"/>
<text text-anchor="middle" x="1559.45" y="-797.3" font-family="Times,serif" font-size="14.00">12251</text>
</g>
<!-- 12249&#45;&gt;12251 -->
<g id="edge62" class="edge">
<title>12249&#45;&gt;12251</title>
<path fill="none" stroke="black" d="M1457.35,-876.36C1472.75,-870.35 1491.27,-862.04 1506.45,-852 1517.82,-844.48 1529.02,-834.42 1538.16,-825.3"/>
<polygon fill="black" stroke="black" points="1540.86,-827.55 1545.33,-817.94 1535.85,-822.67 1540.86,-827.55"/>
<text text-anchor="middle" x="1562.95" y="-840.8" font-family="Times,serif" font-size="14.00">Remaining</text>
</g>
<!-- 12516 -->
<g id="node63" class="node">
<title>12516</title>
<ellipse fill="none" stroke="#c80000" cx="1426.45" cy="-714" rx="40.09" ry="18"/>
<text text-anchor="middle" x="1426.45" y="-710.3" font-family="Times,serif" font-size="14.00">12516</text>
</g>
<!-- 12250&#45;&gt;12516 -->
<g id="edge63" class="edge">
<title>12250&#45;&gt;12516</title>
<path fill="none" stroke="black" stroke-dasharray="1,5" d="M1426.45,-782.8C1426.45,-771.16 1426.45,-755.55 1426.45,-742.24"/>
<polygon fill="black" stroke="black" points="1429.95,-742.18 1426.45,-732.18 1422.95,-742.18 1429.95,-742.18"/>
<text text-anchor="middle" x="1498.95" y="-753.8" font-family="Times,serif" font-size="14.00">(264 nodes omitted)</text>
</g>
<!-- 12517 -->
<g id="node64" class="node">
<title>12517</title>
<ellipse fill="none" stroke="#00c800" cx="1594.45" cy="-714" rx="40.09" ry="18"/>
<text text-anchor="middle" x="1594.45" y="-710.3" font-family="Times,serif" font-size="14.00">12517</text>
</g>
<!-- 12251&#45;&gt;12517 -->
<g id="edge64" class="edge">
<title>12251&#45;&gt;12517</title>
<path fill="none" stroke="black" d="M1566.36,-783.21C1571.3,-771.22 1578.04,-754.85 1583.68,-741.16"/>
<polygon fill="black" stroke="black" points="1586.98,-742.34 1587.55,-731.76 1580.5,-739.67 1586.98,-742.34"/>
<text text-anchor="middle" x="1640.45" y="-753.8" font-family="Times,serif" font-size="14.00">CheckImplication</text>
</g>
</g>
</svg>
